<svg width="214" height="46" viewBox="0 0 214 46" fill="none" xmlns="http://www.w3.org/2000/svg">
<path fill-rule="evenodd" clip-rule="evenodd" d="M102.38 1.3694C97.7962 2.03004 93.5907 5.30359 91.7944 9.60898C90.9658 11.595 90.814 12.4344 90.814 15.0293C90.814 16.8833 90.8702 17.5901 91.0798 18.3767C92.8774 25.1215 99.1109 29.5021 105.799 28.7202C110.537 28.1664 114.494 25.3581 116.561 21.083C117.624 18.8823 117.887 17.6829 117.887 15.0293C117.887 12.3758 117.624 11.1763 116.561 8.97569C113.97 3.61696 108.213 0.528863 102.38 1.3694ZM107.529 2.20908C112.066 3.38108 115.517 6.76331 116.938 11.4282C117.286 12.5723 117.319 12.8799 117.319 15.0293C117.319 17.1792 117.286 17.4863 116.937 18.6314C115.517 23.2953 112.128 26.621 107.52 27.8714C105.851 28.3243 102.766 28.3237 101.11 27.8702C96.484 26.6034 92.9478 23.05 91.6416 18.3559C91.2954 17.1117 91.2154 13.8005 91.4982 12.4197C91.9979 9.97961 93.1257 7.80298 94.8159 6.01608C96.9463 3.76382 99.5035 2.38258 102.38 1.93076C103.703 1.72294 106.162 1.85583 107.529 2.20908ZM101.137 13.0346C99.6089 15.7762 98.3591 18.0559 98.3591 18.1006C98.3591 18.1454 98.5243 18.1616 98.7262 18.1368C99.0474 18.0974 99.4086 17.5333 101.627 13.6049C103.02 11.1372 104.21 9.06714 104.271 9.00489C104.363 8.91117 109.081 17.1172 109.081 17.3703C109.081 17.4146 107.599 17.4508 105.788 17.4508C102.776 17.4508 102.474 17.4732 102.261 17.7113C102.132 17.8546 102.027 18.0149 102.027 18.0674C102.027 18.12 103.905 18.163 106.201 18.163C108.496 18.163 110.353 18.1126 110.327 18.0508C110.301 17.9891 109.042 15.7141 107.529 12.9952C104.851 8.18173 104.767 8.05168 104.346 8.05083C103.925 8.04983 103.844 8.17618 101.137 13.0346ZM98.2716 21.5035C98.2285 21.6173 98.2341 21.7776 98.2843 21.8596C98.3457 21.9599 100.341 22.0089 104.363 22.0089H110.351V21.6528V21.2967H104.351C99.235 21.2967 98.3386 21.3272 98.2716 21.5035ZM137.926 34.5959C136.67 35.186 136.188 36.0694 136.347 37.4888C136.493 38.7966 137.36 39.4084 139.66 39.8261C141.597 40.178 142.027 40.3252 142.357 40.7489C142.954 41.5149 142.845 42.8611 142.131 43.5522C141.541 44.1221 140.807 44.3724 139.735 44.3688C138.19 44.3638 137.139 43.6927 136.733 42.4526C136.603 42.054 136.496 41.9505 136.212 41.9505C135.904 41.9505 135.867 41.9979 135.942 42.3003C136.478 44.4541 138.627 45.534 141.057 44.8699C143.865 44.1025 144.438 40.6697 141.935 39.6135C141.656 39.4958 140.8 39.2937 140.032 39.1645C138.172 38.851 137.487 38.5432 137.221 37.9013C136.752 36.7669 137.151 35.7308 138.285 35.1387C138.824 34.8575 139.074 34.8169 139.951 34.8687C140.69 34.9121 141.091 35.0098 141.362 35.2125C141.876 35.5974 142.375 36.3651 142.375 36.7725C142.375 37.0394 142.451 37.1075 142.747 37.1075C143.098 37.1075 143.114 37.077 143.043 36.5417C142.848 35.0746 141.677 34.2577 139.773 34.2601C138.879 34.2611 138.485 34.3326 137.926 34.5959ZM193.491 34.492C192.599 34.8111 191.687 35.7065 191.166 36.7741C190.754 37.6207 190.705 37.8575 190.65 39.3186C190.57 41.4254 190.881 42.5724 191.818 43.624C193.723 45.7632 197.602 45.4256 198.681 43.0268C199.041 42.2255 199.023 41.9505 198.61 41.9505C198.359 41.9505 198.248 42.0506 198.178 42.3422C197.867 43.6338 196.781 44.372 195.192 44.372C192.746 44.372 191.407 42.71 191.406 39.6714C191.405 37.8106 191.724 36.8491 192.664 35.8763C193.455 35.058 194.029 34.8286 195.279 34.8325C196.64 34.8365 197.792 35.5991 198.127 36.7158C198.252 37.135 198.357 37.25 198.617 37.25C199.008 37.25 199.034 37.0245 198.728 36.2839C198.423 35.5464 197.869 34.9929 197.043 34.5982C196.476 34.3275 196.116 34.2634 195.209 34.2714C194.588 34.2768 193.815 34.3761 193.491 34.492ZM5.19316 35.7187C4.91792 36.4435 4.03294 38.7829 3.22626 40.9178L1.75977 44.7993H2.14293C2.50409 44.7993 2.56264 44.6994 3.16461 43.0544L3.80313 41.3095H6.09958H8.39617L9.04202 43.0544C9.6605 44.7249 9.70508 44.7993 10.0898 44.7993C10.3109 44.7993 10.4706 44.7453 10.4446 44.6792C10.4188 44.6133 9.54115 42.2737 8.49436 39.4801L6.59095 34.4012H6.14218C5.70625 34.4012 5.67917 34.4389 5.19316 35.7187ZM16.6756 39.6002V44.7993H19.7793C22.7889 44.7993 22.883 44.7906 22.883 44.5144C22.883 44.2392 22.7889 44.2295 20.132 44.2295H17.381V39.3153V34.4012H17.0283H16.6756V39.6002ZM31.981 34.5792C31.7021 35.3665 28.202 44.6095 28.1513 44.6924C28.1155 44.7513 28.2648 44.7993 28.4831 44.7993C28.8612 44.7993 28.9113 44.7159 29.5346 43.0544L30.1889 41.3095H32.4832H34.7776L35.4234 43.0544C36.0353 44.7071 36.09 44.7993 36.4589 44.7993H36.8484L36.5949 44.1227C36.4554 43.7505 35.5828 41.4112 34.6557 38.9242L32.97 34.4022L32.5071 34.4017C32.2524 34.4014 32.0157 34.4814 31.981 34.5792ZM43.057 39.5912V44.7993H43.4096H43.7623L43.7719 40.348C43.7793 36.8963 43.8175 35.9767 43.9424 36.2529C44.0308 36.4487 44.9106 38.4358 45.8975 40.6685C47.4532 44.1878 47.7356 44.7333 48.0196 44.7679C48.3552 44.8088 48.5039 44.5023 52.0464 36.4665C52.2947 35.9032 52.2979 35.9464 52.3347 40.348L52.372 44.7993H52.7227H53.0734V39.5912V34.3831L52.6231 34.4278C52.175 34.4721 52.1626 34.4957 50.1293 39.1357C49.0052 41.7005 48.0567 43.7699 48.0213 43.7341C47.986 43.6985 47.0537 41.5999 45.9496 39.0708C43.9635 34.5218 43.9373 34.472 43.4995 34.4278L43.057 34.3831V39.5912ZM60.4094 39.6002V44.7993H63.7247C66.9459 44.7993 67.04 44.7912 67.04 44.5144C67.04 44.2385 66.9459 44.2295 64.0774 44.2295H61.1148V42.0248V39.8201L63.76 39.7814C66.2984 39.7442 66.4052 39.7311 66.4052 39.4578C66.4052 39.1844 66.2984 39.1713 63.76 39.1342L61.1148 39.0954V37.036V34.9768L64.0403 34.9382C66.6968 34.9033 66.9702 34.8768 67.0132 34.6504C67.0574 34.4187 66.8264 34.4012 63.735 34.4012H60.4094V39.6002ZM73.6706 39.6005V44.8233L76.0337 44.7746C78.0831 44.7326 78.4832 44.6859 79.0488 44.4227C80.0235 43.9691 80.774 43.2061 81.2335 42.2015C81.6145 41.3683 81.6415 41.192 81.6415 39.529C81.6415 37.9055 81.6089 37.6783 81.2719 36.9528C80.821 35.982 80.1444 35.2762 79.2284 34.8211C78.5955 34.5066 78.3345 34.4737 76.1042 34.4278L73.6706 34.3777V39.6005ZM90.954 34.6504C90.396 36.0519 87.214 44.5806 87.214 44.6748C87.214 44.7433 87.3633 44.7993 87.5458 44.7993C87.8414 44.7993 87.9473 44.6085 88.5162 43.0544L89.1547 41.3095H91.4511H93.7477L94.3936 43.0544C95.0051 44.7063 95.0603 44.7993 95.4284 44.7993H95.8173L95.4615 43.8378C95.2658 43.3091 94.3936 40.9695 93.5231 38.6388L91.9404 34.4012H91.4968C91.2062 34.4012 91.019 34.4872 90.954 34.6504ZM109.504 39.6002V44.7993H109.928H110.351V42.5915V40.3836H111.964H113.577L114.724 42.5915C115.818 44.6966 115.891 44.7993 116.297 44.7993C116.531 44.7993 116.702 44.749 116.676 44.6876C116.65 44.6262 116.137 43.6367 115.535 42.4888C114.934 41.3408 114.442 40.3668 114.442 40.3242C114.442 40.2818 114.68 40.1234 114.971 39.9723C116.094 39.3891 116.581 38.5581 116.584 37.2208C116.587 36.0619 116.152 35.3189 115.167 34.7997C114.422 34.4079 114.369 34.4012 111.957 34.4012H109.504V39.6002ZM123.33 39.6002V44.7993H126.645C129.866 44.7993 129.961 44.7912 129.961 44.5144C129.961 44.2388 129.866 44.2295 127.068 44.2295H124.176V42.0217V39.8139H126.786H129.396V39.4578V39.1017H126.786H124.176V37.0363V34.9709H127.068C129.866 34.9709 129.961 34.9617 129.961 34.686C129.961 34.4093 129.866 34.4012 126.645 34.4012H123.33V39.6002ZM150.135 39.6002V44.7993H153.45C156.66 44.7993 156.765 44.7903 156.765 44.5172C156.765 44.2466 156.648 44.2338 153.838 44.1968L150.91 44.1583L150.871 41.9861L150.833 39.8139H153.517H156.201V39.4578V39.1017H153.52H150.84V37.0363V34.9709H153.803C156.671 34.9709 156.765 34.9619 156.765 34.686C156.765 34.4093 156.671 34.4012 153.45 34.4012H150.135V39.6002ZM166.344 34.7929C166.262 35.0082 165.4 37.2998 164.429 39.8851C163.457 42.4704 162.633 44.6336 162.598 44.6924C162.562 44.7513 162.712 44.7993 162.931 44.7993C163.311 44.7993 163.359 44.7201 163.975 43.0544L164.621 41.3095H166.918H169.214L169.853 43.0544C170.466 44.73 170.507 44.7993 170.896 44.7993C171.296 44.7993 171.298 44.7946 171.114 44.3363C171.012 44.0817 170.138 41.7432 169.172 39.1396L167.416 34.4059L166.954 34.4034C166.58 34.4016 166.464 34.4749 166.344 34.7929ZM177.503 39.6002V44.7993H177.856H178.209V42.5869V40.3747L179.843 40.4147L181.477 40.4549L182.614 42.6271C183.675 44.6527 183.779 44.7993 184.155 44.7993C184.376 44.7993 184.557 44.7675 184.557 44.7286C184.557 44.6897 184.045 43.6965 183.42 42.5214C182.346 40.503 182.215 40.0988 182.636 40.0988C182.898 40.0988 183.971 39.1317 184.192 38.6957C184.676 37.7391 184.576 36.3673 183.957 35.4898C183.798 35.2646 183.345 34.9282 182.949 34.7422C182.282 34.4288 182.056 34.4039 179.866 34.4026L177.503 34.4012V39.6002ZM205.719 39.6002V44.7993H206.071H206.424V42.3066V39.8139H209.457H212.49V42.3066V44.7993H212.914H213.337V39.6002V34.4012H212.914H212.49V36.7514V39.1017H209.457H206.424V36.7514V34.4012H206.071H205.719V39.6002ZM78.5132 35.2678C79.306 35.5394 80.2118 36.4143 80.597 37.2802C80.8835 37.9246 80.9321 38.2601 80.934 39.6032C80.936 41.088 80.9113 41.224 80.4786 42.1116C79.7015 43.7051 78.5494 44.2205 75.7515 44.2265L74.376 44.2295V39.5834V34.9373L76.1748 35.01C77.1641 35.05 78.2164 35.1661 78.5132 35.2678ZM114.208 35.1246C114.507 35.2082 114.979 35.4881 115.259 35.7465C115.724 36.1767 115.771 36.2935 115.818 37.1249C115.882 38.2425 115.582 38.8845 114.78 39.3487C114.285 39.6351 114.037 39.667 112.291 39.6692L110.351 39.6714V37.3212V34.9709L112.008 34.9718C112.92 34.9722 113.91 35.041 114.208 35.1246ZM182.615 35.3092C183.35 35.6744 183.711 36.3195 183.711 37.269C183.711 38.2462 183.357 38.9326 182.638 39.3487C182.143 39.6351 181.895 39.667 180.149 39.6692L178.209 39.6714V37.3075V34.9436L180.149 34.9956C181.67 35.0363 182.202 35.104 182.615 35.3092ZM7.13903 37.8662C7.651 39.2626 8.06986 40.4324 8.06986 40.4657C8.06986 40.4989 7.1743 40.5261 6.07969 40.5261C4.24075 40.5261 4.09699 40.5071 4.18813 40.2768C4.30212 39.9888 5.9221 35.7105 6.0296 35.4135C6.0691 35.3044 6.12539 35.2403 6.15474 35.271C6.18408 35.3018 6.62706 36.4697 7.13903 37.8662ZM33.5482 37.9622C33.9881 39.1765 34.378 40.2502 34.4147 40.348C34.4662 40.4853 34.022 40.5261 32.4762 40.5261C30.6237 40.5261 30.4783 40.5071 30.5674 40.2768C30.6205 40.1398 31.0025 39.1302 31.4166 38.0334C32.5948 34.9118 32.4875 35.1389 32.6276 35.4695C32.694 35.6261 33.1082 36.7479 33.5482 37.9622ZM92.4916 37.8813C93.003 39.2861 93.4214 40.456 93.4214 40.4808C93.4214 40.5057 92.5258 40.5261 91.4312 40.5261C89.5923 40.5261 89.4485 40.5071 89.5397 40.2768C89.6537 39.9888 91.2736 35.7105 91.3812 35.4135C91.4207 35.3044 91.4775 35.2403 91.5074 35.271C91.5373 35.3018 91.9803 36.4765 92.4916 37.8813ZM167.91 37.7652C168.415 39.1448 168.848 40.3305 168.874 40.3999C168.9 40.4695 168.024 40.5261 166.923 40.5261C165.783 40.5261 164.944 40.4704 164.971 40.3966C166.159 37.1256 166.867 35.2619 166.923 35.2595C166.961 35.2578 167.406 36.3854 167.91 37.7652Z" fill="#A1A6B1" stroke="#A1A6B1" stroke-width="1.29034"/>
</svg>
