<svg width="221" height="32" viewBox="0 0 221 32" fill="none" xmlns="http://www.w3.org/2000/svg">
<path fill-rule="evenodd" clip-rule="evenodd" d="M141.084 2.50019C141.084 4.03776 141.14 4.0744 143.275 3.91956C145.235 3.77762 145.483 3.61195 145.629 2.34174C145.786 0.976557 145.702 0.922363 143.438 0.922363C141.156 0.922363 141.084 0.970879 141.084 2.50019ZM147.972 1.69657C147.295 3.4633 148.163 4.01918 151.601 4.01918C154.476 4.01918 154.979 3.87775 155.26 2.99155C155.794 1.30637 155.115 0.922363 151.606 0.922363C149.115 0.922363 148.194 1.11849 147.972 1.69657ZM157.676 2.34174L157.839 3.76111L178.265 3.89582C195.896 4.01247 198.778 3.92524 199.331 3.25736C199.684 2.83206 199.838 2.1327 199.673 1.70328C199.413 1.02404 196.651 0.922363 178.443 0.922363H157.513L157.676 2.34174ZM167.059 8.37639C166.42 10.044 167.256 10.7965 169.563 10.6298C171.52 10.4884 171.759 10.3299 171.759 9.18053C171.759 8.03109 171.52 7.87264 169.563 7.73122C167.947 7.61406 167.286 7.78438 167.059 8.37639ZM174.269 8.39703C174.104 8.828 174.104 9.53305 174.269 9.96402C174.528 10.6401 176.285 10.7284 187.084 10.6091L199.599 10.4708V9.18053V7.89019L187.084 7.75186C176.285 7.63264 174.528 7.72089 174.269 8.39703ZM0.980383 14.6531C0.505042 14.8678 0.335938 17.0345 0.335938 22.9009V30.8582H5.51472C10.3265 30.8582 10.7838 30.7683 11.9592 29.591C13.4245 28.1247 13.6492 25.5007 12.4562 23.7954C11.8004 22.8581 11.7886 22.456 12.3763 21.0562C13.2538 18.9674 12.9331 17.3127 11.3653 15.8381C10.3223 14.8575 9.45153 14.6479 5.8751 14.5173C3.53756 14.4322 1.33509 14.4936 0.980383 14.6531ZM23.665 14.6835C23.1886 14.876 23.0206 17.0185 23.0206 22.9009V30.8582H28.1761H33.3317V29.5678C33.3317 28.3141 33.2286 28.2775 29.7228 28.2775H26.1139V21.623C26.1139 16.0311 25.9835 14.9184 25.2983 14.6551C24.8498 14.4827 24.444 14.3604 24.3961 14.3826C24.3486 14.4048 24.0197 14.5405 23.665 14.6835ZM45.8129 15.2027C39.5081 18.3135 39.8752 28.3637 46.3831 30.8251C51.1288 32.6202 56.8139 29.8357 58.1002 25.0867C59.9701 18.1839 52.2904 12.0063 45.8129 15.2027ZM71.5104 15.4892C68.9259 16.8755 66.843 20.1509 66.843 22.8297C66.843 29.4027 75.3054 33.7165 80.6817 29.8842C83.7719 27.6808 82.084 25.7959 78.7174 27.6901C76.3541 29.0197 75.5405 29.0548 73.1731 27.9306C69.7462 26.3022 69.0409 21.5729 71.811 18.7992C73.7376 16.8709 76.1772 16.5478 78.4921 17.9156C80.3935 19.0387 82.3098 18.9597 82.3098 17.7592C82.3098 16.4817 79.0654 14.6722 76.4015 14.4636C74.3815 14.3052 73.2927 14.5338 71.5104 15.4892ZM91.9338 14.6861C91.7445 14.875 91.5899 18.5912 91.5899 22.9443V30.8582H92.8788C94.0774 30.8582 94.1677 30.6822 94.1677 28.3404C94.1677 26.7668 94.4492 25.5894 94.9178 25.1998C95.6746 24.5711 96.7253 25.4878 99.942 29.5818C100.66 30.4958 101.446 30.8582 102.712 30.8582C103.684 30.8582 104.479 30.63 104.479 30.3518C104.479 30.0731 102.945 28.2176 101.07 26.2279L97.6611 22.6103L100.889 18.9654C103.191 16.3656 103.958 15.162 103.562 14.7661C102.484 13.6869 100.576 14.8575 97.5188 18.473L94.4254 22.1308L94.2703 18.6376C94.1104 15.0335 93.1716 13.4463 91.9338 14.6861ZM112.472 15.3695C111.97 16.9509 112.584 17.4386 115.078 17.4386H117.368V24.1484V30.8582H118.914H120.461V24.1768V17.4954L122.905 17.338C124.817 17.2146 125.39 16.969 125.534 16.2102C125.828 14.6613 124.691 14.3584 118.562 14.3496C113.255 14.3424 112.772 14.4234 112.472 15.3695ZM137.63 15.4154C131.999 18.2056 131.971 27.797 137.586 30.3482C141.86 32.2904 146.38 31.2576 148.678 27.814C150.372 25.2746 150.33 20.4529 148.591 17.8903C146.227 14.4079 141.718 13.3896 137.63 15.4154ZM158.244 14.7558C157.776 15.0541 158.199 17.0913 159.919 22.8328C161.186 27.0563 162.221 30.6042 162.221 30.7172C162.221 30.8308 162.96 30.8509 163.863 30.7616C165.468 30.6037 165.534 30.4927 166.818 25.8258C167.54 23.1997 168.284 21.0516 168.472 21.0516C168.659 21.0516 168.966 21.69 169.155 22.471C169.344 23.2519 169.959 25.4578 170.522 27.3742C171.472 30.6104 171.649 30.8582 173 30.8582C174.605 30.8582 174.786 30.5103 177.395 22.3698C179.668 15.2822 179.64 13.8159 177.244 14.5772C176.539 14.8012 175.925 16.2732 174.862 20.2877C174.074 23.2627 173.28 25.6968 173.096 25.6968C172.912 25.6968 172.074 23.2612 171.233 20.2846C169.011 12.4151 167.829 12.4419 165.582 20.4126C164.803 23.177 164.107 25.5048 164.035 25.5858C163.963 25.6669 163.245 23.3443 162.44 20.4245C160.791 14.4456 160.132 13.5547 158.244 14.7558ZM188.509 15.3849C188.202 15.9584 188.092 16.6552 188.264 16.9334C188.436 17.211 191.006 17.4386 193.975 17.4386C198.319 17.4386 199.432 17.2859 199.673 16.6577C200.339 14.9199 198.894 14.3418 193.883 14.3418C189.578 14.3418 189.008 14.4523 188.509 15.3849ZM208.155 15.0572C207.752 15.5424 207.608 18.1597 207.705 23.1863L207.848 30.6001L209.266 30.7632C210.663 30.9242 210.684 30.8834 210.684 28.0535C210.684 25.2369 210.713 25.1807 212.157 25.1807C213.372 25.1807 213.962 25.6803 215.514 28.0194C217.097 30.4071 217.642 30.8582 218.938 30.8582C220.923 30.8582 220.88 30.2481 218.676 27.1776C217.684 25.7954 217.07 24.6645 217.312 24.6645C217.553 24.6645 218.365 24.0947 219.115 23.399C220.19 22.4018 220.48 21.6539 220.48 19.8758C220.48 17.3948 219.342 15.8913 216.708 14.8926C214.562 14.0786 208.875 14.188 208.155 15.0572ZM52.1847 17.6781C55.6312 19.1197 56.4236 24.1164 53.6463 26.8963C51.8021 28.7425 49.7332 29.0847 47.3884 27.9317C43.5104 26.0251 43.2207 20.1736 46.893 17.9321C48.8681 16.7264 49.8023 16.6815 52.1847 17.6781ZM143.888 17.5181C145.775 18.379 146.841 20.3068 146.841 22.8581C146.841 25.6349 145.635 27.5404 143.413 28.2744C139.775 29.4765 136.443 26.9015 136.443 22.888C136.443 18.5829 140.231 15.8505 143.888 17.5181ZM9.59795 18.4368C10.2883 19.7282 10.2801 19.7969 9.32161 20.7569C8.80399 21.2746 7.59294 21.5677 5.97048 21.5677H3.42929V19.5032V17.4386H6.24682C8.50445 17.4386 9.17004 17.6368 9.59795 18.4368ZM216.768 18.058C217.752 19.0433 217.487 20.9226 216.24 21.7964C215.61 22.2382 214.102 22.6 212.889 22.6H210.684V20.0193V17.4386H213.416C214.919 17.4386 216.427 17.7174 216.768 18.058ZM186.174 22.6645C185.642 24.344 186.677 24.648 192.963 24.6568C198.931 24.6651 200.371 24.1696 199.673 22.3486C199.428 21.7091 198.208 21.5677 192.948 21.5677C186.849 21.5677 186.504 21.6235 186.174 22.6645ZM9.51288 24.7678C10.3966 25.6524 10.277 27.5951 9.31594 27.9642C8.8674 28.1366 7.35939 28.2775 5.96481 28.2775H3.42929V26.2129V24.1484H6.16175C7.6646 24.1484 9.17261 24.4271 9.51288 24.7678ZM184.193 29.0806C183.533 30.8024 183.905 30.8845 191.737 30.7425C199.208 30.6073 199.599 30.549 199.599 29.5678C199.599 28.5892 199.208 28.5283 192.055 28.3931C185.515 28.2697 184.469 28.3611 184.193 29.0806Z" fill="#A1A6B1"/>
</svg>
