<svg width="184" height="32" viewBox="0 0 184 32" fill="none" xmlns="http://www.w3.org/2000/svg">
<path fill-rule="evenodd" clip-rule="evenodd" d="M71.2208 16.4411V0.774615H67.9088V25.1354L76.2915 15.1497L84.5624 25.1354H89.033L78.7503 13.2842L88.0271 0.774615H83.9864L71.2208 16.4411ZM171.629 4.14465C174.177 4.14465 176.473 5.23096 178.085 6.96932L180.627 4.78661C178.395 2.2574 175.142 0.664307 171.521 0.664307C164.792 0.664307 159.336 6.16677 159.336 12.9545C159.336 19.742 164.792 25.2445 171.521 25.2445C178.251 25.2445 183.707 19.742 183.707 12.9545C183.707 12.5508 183.688 12.1517 183.65 11.758H183.275H174.313V15.0209H180.258C179.373 19.0046 175.846 21.9817 171.629 21.9817C166.746 21.9817 162.786 17.9886 162.786 13.0631C162.786 8.1376 166.746 4.14465 171.629 4.14465ZM31.137 0.664322C33.1761 0.664322 35.1013 1.14299 36.8025 1.99211L34.9437 4.8064C33.7533 4.26101 32.4256 3.9564 31.0251 3.9564C25.9017 3.9564 21.7483 8.03413 21.7483 13.0643C21.7483 15.8111 22.9869 18.274 24.9458 19.9439L23.2554 22.5033C20.4267 20.2499 18.6189 16.8094 18.6189 12.9545C18.6189 6.16679 24.2234 0.664322 31.137 0.664322ZM31.0251 22.1721C29.9044 22.1721 28.8301 21.977 27.8354 21.6194L26.1195 24.2175C27.6556 24.878 29.3527 25.2445 31.137 25.2445C38.0506 25.2445 43.6549 19.7421 43.6549 12.9545C43.6549 9.35244 42.0767 6.11237 39.562 3.86445L37.678 6.71693C39.302 8.35726 40.3019 10.5961 40.3019 13.0643C40.3019 18.0943 36.1485 22.1721 31.0251 22.1721ZM0.847656 0.774615H17.8364V3.95688H4.20071V11.0895H14.8187V14.4913H4.20071V25.1354H0.847656V0.774615ZM47.6787 0.774615H51.4787V22.1725H64.2204V25.1354H47.6787V0.774615ZM92.9449 0.774615H89.033L100.545 25.1354L112.84 0.774615H108.704L100.545 17.7833L92.9449 0.774615ZM121.893 0.774615L109.598 25.1354H113.622L121.893 7.46832L129.828 25.1354H133.517L121.893 0.774615ZM136.31 25.1354V0.774615L152.182 16.6859V0.774615H155.312V25.1354L139.888 8.89487V25.1354H136.31ZM139.786 29.7895L139.792 30.2701L138.882 29.3444V31.1883H138.507V28.9618V28.4574V27.6153L139.786 28.9474L140.82 27.6105L140.824 28.1623L139.803 29.4233L138.882 28.5097V28.8485L139.786 29.7895ZM20.1252 30.1911V31.4129H19.7497V27.8397H20.1252V29.0463L21.2156 27.842H21.6154L20.1252 29.4878V29.7501L21.9061 27.8325H22.3059L20.1252 30.1911ZM46.2676 29.4486L45.2354 30.7142L44.3267 29.7885V31.6324H43.951V29.4059V28.9015V28.0595L45.2304 29.3916L46.2651 28.0546L46.2676 28.6066L45.2474 29.8675L44.3267 28.9538V29.2926L45.2304 30.2337L46.2651 28.8967L46.2676 29.4486ZM68.2841 31.4103V28.7317L69.1322 29.6095H69.6L67.9088 27.8374V31.4103H68.2841ZM91.5867 29.5667V31.4031H91.211V27.8397H91.5867V29.0553L93.1084 30.3851L93.1131 31.4031L92.7277 31.4081L92.7254 30.5515L91.5867 29.5667ZM115.115 31.4103V28.6009L116.473 29.5857L116.475 31.4058L116.86 31.4009L116.854 29.4193L114.74 27.8374V31.4103H115.115ZM164.315 27.842L163.656 28.4718L162.99 27.8374H162.459L163.382 28.7317L162.445 29.6261L163.38 30.5137L162.459 31.4058H162.982L163.651 30.7708L164.323 31.4081H164.846L163.923 30.5124L164.861 29.6215L163.926 28.7305L164.846 27.842H164.315ZM163.004 29.6215L163.653 28.9943L164.301 29.6215L163.652 30.2498L163.004 29.6215Z" fill="#A1A6B1"/>
</svg>
