<svg width="263" height="49" viewBox="0 0 263 49" fill="none" xmlns="http://www.w3.org/2000/svg">
<g clip-path="url(#clip0_1017_2527)">
<g clip-path="url(#clip1_1017_2527)">
<path d="M48.9857 19.548V21.1385C48.1904 25.7821 44.1883 29.1685 39.4934 29.1685H29.7446C29.7446 34.479 25.4347 38.789 20.1241 38.789V29.1685H10.4779V38.789C10.4779 43.4838 7.09152 47.486 2.44802 48.2813H0.857422V19.548C0.857422 14.2374 5.16742 9.92743 10.4779 9.90177V19.5223H20.0985V9.90177C20.1241 4.59124 24.4085 0.28125 29.7446 0.28125V19.548H48.9857Z" fill="white"/>
<path d="M41.7254 14.8018C45.7351 14.8018 48.9857 11.5513 48.9857 7.54154C48.9857 3.53179 45.7351 0.28125 41.7254 0.28125C37.7156 0.28125 34.4651 3.53179 34.4651 7.54154C34.4651 11.5513 37.7156 14.8018 41.7254 14.8018Z" fill="white"/>
<path d="M63.8896 30.4641H68.7851V20.8993H78.723V30.4641H83.6072V7.30957H78.723V16.8631H68.7851V7.30957H63.8896V30.4641Z" fill="white"/>
<path d="M90.5264 36.9763C94.1104 36.9763 96.0098 35.1447 96.9934 32.3408L103.743 13.1208L98.644 13.0981L95.0148 25.8512H94.8339L91.2386 13.0981H86.1736L92.4032 30.9615L92.1205 31.6964C91.4874 33.3245 90.2776 33.4036 88.5817 32.8835L87.4964 36.4788C88.186 36.7728 89.3053 36.9763 90.5264 36.9763Z" fill="white"/>
<path d="M112.031 30.7468C114.835 30.7468 116.293 29.13 116.96 27.6829H117.164V30.4641H121.912V7.30957H117.107V16.0151H116.96C116.316 14.6019 114.925 12.8721 112.02 12.8721C108.209 12.8721 104.987 15.8342 104.987 21.8038C104.987 27.615 108.074 30.7468 112.031 30.7468ZM113.557 26.9141C111.194 26.9141 109.905 24.8112 109.905 21.7812C109.905 18.7738 111.172 16.7048 113.557 16.7048C115.898 16.7048 117.209 18.6833 117.209 21.7812C117.209 24.879 115.875 26.9141 113.557 26.9141Z" fill="white"/>
<path d="M125.858 30.464H130.674V20.6392C130.674 18.5023 132.234 17.0326 134.36 17.0326C135.027 17.0326 135.943 17.1456 136.395 17.2926V13.019C135.965 12.9172 135.366 12.8494 134.88 12.8494C132.935 12.8494 131.341 13.98 130.708 16.1281H130.527V13.0981H125.858V30.464Z" fill="white"/>
<path d="M146.537 30.8033C151.805 30.8033 155.084 27.1967 155.084 21.849C155.084 16.4674 151.805 12.8721 146.537 12.8721C141.268 12.8721 137.99 16.4674 137.99 21.849C137.99 27.1967 141.268 30.8033 146.537 30.8033ZM146.559 27.0723C144.129 27.0723 142.885 24.8451 142.885 21.8151C142.885 18.7851 144.129 16.5465 146.559 16.5465C148.945 16.5465 150.189 18.7851 150.189 21.8151C150.189 24.8451 148.945 27.0723 146.559 27.0723Z" fill="white"/>
<path d="M166.04 37.3381C171.003 37.3381 174.53 35.0769 174.53 30.6337V13.0982H169.748V16.0151H169.567C168.923 14.6019 167.509 12.8721 164.604 12.8721C160.794 12.8721 157.571 15.8342 157.571 21.7472C157.571 27.5246 160.703 30.2154 164.615 30.2154C167.385 30.2154 168.934 28.8247 169.567 27.3889H169.77V30.5659C169.77 32.9514 168.244 33.8785 166.153 33.8785C164.027 33.8785 162.953 32.9514 162.557 31.9L158.103 32.4992C158.679 35.2352 161.359 37.3381 166.04 37.3381ZM166.141 26.5975C163.778 26.5975 162.489 24.7207 162.489 21.7246C162.489 18.7738 163.756 16.7048 166.141 16.7048C168.482 16.7048 169.793 18.6833 169.793 21.7246C169.793 24.7885 168.459 26.5975 166.141 26.5975Z" fill="white"/>
<path d="M186.277 30.8033C190.573 30.8033 193.468 28.7117 194.146 25.4895L189.692 25.1955C189.205 26.5183 187.962 27.208 186.356 27.208C183.948 27.208 182.422 25.6139 182.422 23.0248V23.0135H194.248V21.6907C194.248 15.789 190.675 12.8721 186.085 12.8721C180.975 12.8721 177.662 16.5013 177.662 21.8603C177.662 27.3663 180.929 30.8033 186.277 30.8033ZM182.422 20.0287C182.524 18.0502 184.027 16.4674 186.164 16.4674C188.256 16.4674 189.703 17.9597 189.714 20.0287H182.422Z" fill="white"/>
<path d="M202.207 20.4244C202.219 18.1859 203.553 16.8744 205.497 16.8744C207.431 16.8744 208.595 18.1406 208.584 20.2662V30.4641H213.4V19.4069C213.4 15.3594 211.026 12.8721 207.408 12.8721C204.83 12.8721 202.965 14.1383 202.185 16.1621H201.981V13.0982H197.391V30.4641H202.207V20.4244Z" fill="white"/>
<path d="M218.091 30.4641H220.895V20.1079H233.241V30.4641H236.045V7.30957H233.241V17.6206H220.895V7.30957H218.091V30.4641Z" fill="white"/>
<path d="M241.659 30.4641H244.462V21.4194H249.527C249.731 21.4194 249.923 21.4194 250.115 21.4081L255 30.4641H258.256L253.021 20.8993C255.972 19.8931 257.351 17.4849 257.351 14.4097C257.351 10.317 254.909 7.30957 249.482 7.30957H241.659V30.4641ZM244.462 18.8869V9.79688H249.392C253.145 9.79688 254.593 11.6284 254.593 14.4097C254.593 17.191 253.145 18.8869 249.437 18.8869H244.462Z" fill="white"/>
</g>
</g>
<defs>
<clipPath id="clip0_1017_2527">
<rect width="262" height="48" fill="white" transform="translate(0.857422 0.28125)"/>
</clipPath>
<clipPath id="clip1_1017_2527">
<rect width="258.343" height="48" fill="white" transform="translate(0.857422 0.28125)"/>
</clipPath>
</defs>
</svg>
