<svg width="16" height="17" viewBox="0 0 16 17" fill="none" xmlns="http://www.w3.org/2000/svg">
<path d="M14.1 15.1H14.6V14.6V13.5C14.6 13.2295 14.4457 13.0182 14.3307 12.8909C14.2013 12.7475 14.0306 12.6118 13.8421 12.486C13.4624 12.2325 12.9426 11.9745 12.3437 11.7435C11.1456 11.2814 9.55913 10.9 8 10.9C6.44087 10.9 4.8544 11.2814 3.65632 11.7435C3.05741 11.9745 2.53759 12.2325 2.15785 12.486C1.96945 12.6118 1.79872 12.7475 1.66925 12.8909C1.55427 13.0182 1.4 13.2295 1.4 13.5V14.6V15.1H1.9H14.1ZM10.6 4.5C10.6 3.06386 9.43614 1.9 8 1.9C6.56386 1.9 5.4 3.06386 5.4 4.5C5.4 5.93614 6.56386 7.1 8 7.1C9.43614 7.1 10.6 5.93614 10.6 4.5ZM4.5 4.5C4.5 2.56614 6.06614 1 8 1C9.93386 1 11.5 2.56614 11.5 4.5C11.5 6.43386 9.93386 8 8 8C6.06614 8 4.5 6.43386 4.5 4.5ZM0.5 13.5C0.5 13.0186 0.737162 12.56 1.21364 12.1202C1.69352 11.6773 2.38208 11.2882 3.18469 10.9666C4.79071 10.3233 6.7275 10 8 10C9.2725 10 11.2093 10.3233 12.8153 10.9666C13.6179 11.2882 14.3065 11.6773 14.7864 12.1202C15.2628 12.56 15.5 13.0186 15.5 13.5V15.5C15.5 15.7739 15.2739 16 15 16H1C0.726142 16 0.5 15.7739 0.5 15.5V13.5Z" fill="#BDC3BF" stroke="#57596C"/>
</svg>
