<svg width="140" height="81" viewBox="0 0 140 81" fill="none" xmlns="http://www.w3.org/2000/svg">
<path fill-rule="evenodd" clip-rule="evenodd" d="M55.546 0.212146C55.3663 0.295263 55.1369 0.496687 55.0255 0.669187C54.9056 0.854829 40.8812 28.7665 40.788 29.0049C40.6231 29.4271 40.7294 29.915 41.0614 30.2596C41.2202 30.4245 41.911 30.7728 55.3447 37.4607C63.1088 41.326 69.5607 44.5274 69.6824 44.575C70.0069 44.7022 70.3625 44.6962 70.686 44.5582C70.817 44.5023 77.2549 41.3049 84.9925 37.4529C98.2271 30.8642 99.0715 30.4386 99.2398 30.2723C99.5389 29.9768 99.6688 29.5776 99.5895 29.1976C99.5627 29.0688 97.4146 24.7617 92.4558 14.8938C88.5533 7.1281 85.3387 0.734353 85.3122 0.685513C85.2393 0.550947 84.9413 0.287506 84.7793 0.21428C84.6671 0.163576 84.5566 0.149046 84.2785 0.14847C83.9573 0.147793 83.9036 0.15687 83.7396 0.239513C83.5053 0.357482 83.2497 0.636808 83.1492 0.884499L83.0702 1.07915L83.0532 13.7719L83.0362 26.4647L76.9972 20.4504C70.1313 13.6126 70.7589 14.1873 70.1587 14.1872C69.5706 14.1872 70.1986 13.6116 63.329 20.4469L57.2647 26.4807L57.2559 13.763L57.2471 1.04528L57.1368 0.82079C57.0084 0.559619 56.8062 0.349929 56.5685 0.231554C56.4209 0.158022 56.356 0.147827 56.0412 0.14847C55.7639 0.149046 55.6511 0.163543 55.546 0.212146ZM54.8485 17.3367V28.2259H49.3681C46.3538 28.2259 43.8927 28.2133 43.899 28.1979C43.9403 28.0961 54.8262 6.44755 54.8361 6.44755C54.843 6.44755 54.8485 11.3477 54.8485 17.3367ZM90.9655 17.3416C93.9677 23.3187 96.424 28.2128 96.424 28.2175C96.4241 28.2221 93.9592 28.2259 90.9465 28.2259H85.4688V17.3311C85.4688 11.3389 85.4774 6.4448 85.4879 6.45524C85.4984 6.4657 87.9633 11.3645 90.9655 17.3416ZM68.9679 29.4367V40.5715L63.3712 34.9999L57.7745 29.4284L63.3626 23.8652C66.4361 20.8054 68.9547 18.302 68.9594 18.302C68.9641 18.302 68.9679 23.3126 68.9679 29.4367ZM77.0057 23.8928C80.0512 26.9222 82.5429 29.407 82.5429 29.4146C82.5429 29.4222 80.0244 31.9356 76.9462 34.9999L71.3495 40.5715V29.4326C71.3495 18.8294 71.3523 18.2959 71.409 18.3393C71.4418 18.3644 73.9603 20.8635 77.0057 23.8928ZM59.7609 34.8366C62.0834 37.1498 63.9683 39.035 63.9496 39.0257C62.3071 38.2136 47.4715 30.827 47.3245 30.7482L47.1084 30.6322L51.3233 30.6315L55.5381 30.6307L59.7609 34.8366ZM92.9929 30.7482C92.8429 30.8286 79.7665 37.3394 76.3678 39.0258C76.3491 39.0351 78.2322 37.1506 80.5526 34.838L84.7714 30.6334L88.9902 30.6328L93.209 30.6322L92.9929 30.7482ZM8.34962 55.94C8.29011 55.9819 8.23401 56.0391 8.22492 56.0671C8.16603 56.2484 7.95601 56.8021 7.86517 57.0154C7.8057 57.1551 7.70554 57.4142 7.64263 57.5912C7.53566 57.8921 7.44924 58.1132 7.1066 58.9629C7.03148 59.1492 6.92696 59.4236 6.87433 59.5726C6.82173 59.7216 6.72235 59.9731 6.65356 60.1315C6.58476 60.2898 6.50842 60.4879 6.48396 60.5718C6.44119 60.7184 6.39771 60.8296 6.16632 61.3846C6.10808 61.5244 6.06034 61.6576 6.06027 61.6807C6.06024 61.7039 5.97743 61.9173 5.87628 62.1549C5.77513 62.3926 5.67749 62.6404 5.65925 62.7056C5.64101 62.7708 5.55021 63.007 5.45746 63.2306C5.36472 63.4541 5.27912 63.676 5.26724 63.7236C5.25537 63.7712 5.21233 63.8851 5.1716 63.9768L5.09754 64.1434L4.98506 63.7547C4.92317 63.5409 4.87183 63.3343 4.87098 63.2956C4.8701 63.2568 4.77752 62.9024 4.66525 62.508C4.55297 62.1135 4.46111 61.765 4.46111 61.7336C4.46111 61.7022 4.37064 61.3479 4.26007 60.9463C4.1495 60.5447 4.04035 60.1323 4.01756 60.0299C3.99476 59.9274 3.91695 59.6367 3.84462 59.3839C3.77232 59.131 3.69754 58.8415 3.67849 58.7403C3.65944 58.6392 3.5622 58.2593 3.46238 57.896C3.36256 57.5328 3.23837 57.0603 3.18639 56.8461C3.06323 56.3386 2.9959 56.187 2.85586 56.1019C2.74937 56.0373 2.68673 56.0334 1.75002 56.0333C1.20389 56.0333 0.720192 56.0471 0.675078 56.0642C0.515172 56.1247 0.480469 56.1916 0.480469 56.4394C0.480469 56.6253 0.520922 56.805 0.684604 57.3459C0.796878 57.7168 0.888738 58.0432 0.888738 58.071C0.888738 58.0989 0.920928 58.2272 0.960288 58.3561C1.1696 59.0414 1.26282 59.3618 1.3242 59.6065C1.36159 59.7555 1.42558 59.9841 1.46648 60.1145C1.50734 60.2449 1.57215 60.4735 1.61046 60.6226C1.68592 60.9159 1.78371 61.2581 1.95882 61.8419C2.02026 62.0468 2.09403 62.3135 2.12271 62.4346C2.15135 62.5557 2.20807 62.7615 2.24873 62.8919C2.28935 63.0223 2.35869 63.2585 2.40278 63.4168C2.58589 64.0744 2.66574 64.3565 2.7096 64.5007C2.73508 64.5845 2.782 64.7522 2.81384 64.8733C2.88712 65.1519 3.08466 65.8385 3.17434 66.1265C3.21207 66.2475 3.25596 66.4152 3.27189 66.499C3.28781 66.5828 3.33126 66.7505 3.36848 66.8716C3.43016 67.0725 3.53726 67.4463 3.77117 68.2772C3.81836 68.4448 3.89899 68.7192 3.9503 68.8869C4.00164 69.0545 4.06757 69.2984 4.09683 69.4288C4.20894 69.9286 4.27773 69.9873 4.75122 69.9875C5.11506 69.9877 5.17348 69.9577 5.25993 69.7269C5.29344 69.6374 5.3476 69.5033 5.3803 69.4288C5.60992 68.9056 5.6519 68.8029 5.6519 68.7642C5.6519 68.7402 5.74192 68.4989 5.85199 68.2279C5.96202 67.957 6.11712 67.5752 6.19664 67.3796C6.27618 67.184 6.39101 66.8868 6.45187 66.7192C6.55697 66.4296 6.64886 66.1968 6.98014 65.3813C7.05958 65.1857 7.17492 64.8885 7.2364 64.7208C7.29791 64.5532 7.41784 64.2484 7.50293 64.0434C7.58802 63.8385 7.65801 63.6545 7.65845 63.6346C7.65886 63.6147 7.72177 63.4546 7.79821 63.279C7.87466 63.1033 7.9802 62.8377 8.03277 62.6886C8.0853 62.5396 8.18539 62.2881 8.25514 62.1298C8.32492 61.9714 8.40045 61.7809 8.42304 61.7064C8.4456 61.6319 8.48203 61.528 8.50394 61.4756C8.52589 61.4232 8.54382 61.374 8.54382 61.3664C8.54382 61.3397 8.74727 60.9105 8.75993 60.9105C8.76694 60.9105 8.79991 60.9981 8.83325 61.1052C8.86656 61.2123 8.92123 61.3609 8.95474 61.4355C9.17677 61.9292 9.22032 62.0349 9.24152 62.1309C9.26438 62.2345 9.31181 62.3524 9.48185 62.7283C9.52544 62.8246 9.59052 62.9922 9.62648 63.1008C9.69361 63.3035 9.81509 63.6016 9.95919 63.9175C10.0041 64.0158 10.0409 64.1148 10.0409 64.1376C10.0409 64.1603 10.1328 64.3975 10.245 64.6647C10.3573 64.9318 10.4491 65.1641 10.4491 65.1809C10.4491 65.1977 10.5333 65.4085 10.6362 65.6493C10.7391 65.8901 10.8233 66.1025 10.8233 66.1213C10.8233 66.1401 10.9128 66.3661 11.0222 66.6236C11.1316 66.8811 11.2323 67.1372 11.246 67.1928C11.2597 67.2484 11.3053 67.3704 11.3473 67.4638C11.5009 67.8053 11.9238 68.8605 12.0195 69.1409C12.1399 69.4935 12.3035 69.8347 12.3884 69.91C12.4636 69.9768 12.5113 69.9856 12.8002 69.9866C13.1007 69.9875 13.1342 69.981 13.217 69.9045C13.2749 69.8511 13.3362 69.7271 13.3886 69.5573C13.5826 68.9285 13.6132 68.8219 13.6132 68.7746C13.6132 68.7255 13.8069 68.054 13.9081 67.7522C13.9362 67.6684 13.9867 67.4779 14.0203 67.3288C14.054 67.1798 14.1503 66.8369 14.2344 66.5668C14.3186 66.2966 14.3979 66.0223 14.4106 65.9571C14.4368 65.8233 14.6007 65.255 14.7228 64.8742C14.7674 64.735 14.804 64.5921 14.804 64.5566C14.804 64.5211 14.8958 64.195 15.0081 63.8319C15.1204 63.4688 15.2123 63.1461 15.2123 63.1147C15.2123 63.0833 15.3041 62.7556 15.4164 62.3866C15.5287 62.0176 15.6205 61.6929 15.6205 61.6651C15.6205 61.6372 15.7047 61.3393 15.8076 61.003C15.9106 60.6667 15.9948 60.3653 15.9948 60.3333C15.9948 60.3012 16.0866 59.9779 16.1989 59.6148C16.3112 59.2517 16.403 58.9287 16.403 58.8969C16.403 58.8652 16.4937 58.5317 16.6045 58.1559C16.7153 57.7801 16.8554 57.2974 16.9158 57.0832C16.9763 56.8689 17.0416 56.6374 17.0611 56.5686C17.1096 56.3972 17.0577 56.2107 16.9365 56.1211C16.8447 56.0532 16.7953 56.0497 15.8137 56.041C14.8424 56.0323 14.7811 56.0355 14.6782 56.0987C14.5307 56.1893 14.4672 56.2955 14.4314 56.5115C14.4148 56.6117 14.3367 56.9223 14.2578 57.2017C14.179 57.4811 14.0924 57.8088 14.0655 57.9299C14.0386 58.051 13.9258 58.4854 13.8149 58.8952C13.7039 59.305 13.613 59.6708 13.6127 59.7081C13.6125 59.7453 13.573 59.913 13.5249 60.0807C13.4171 60.4567 13.261 61.0571 13.1947 61.3508C13.1674 61.4719 13.0762 61.8224 12.992 62.1298C12.9078 62.4372 12.824 62.7649 12.8057 62.858C12.7546 63.1183 12.4844 64.0732 12.4516 64.1095C12.4344 64.1284 12.4224 64.1117 12.4224 64.0687C12.4224 64.0067 12.2455 63.5545 12.0643 63.1532C12.0367 63.092 12.0141 63.0212 12.0141 62.9959C12.0141 62.9535 11.8919 62.649 11.7407 62.3149C11.7067 62.2397 11.6677 62.133 11.654 62.0778C11.6404 62.0226 11.5397 61.764 11.4304 61.5032C11.3211 61.2424 11.2317 61.0087 11.2316 60.984C11.2316 60.9592 11.1491 60.7458 11.0483 60.5098C10.9475 60.2737 10.8503 60.0273 10.8322 59.9621C10.8141 59.8969 10.7214 59.6607 10.6261 59.4371C10.5309 59.2136 10.4423 58.9869 10.4293 58.9334C10.4163 58.8799 10.3524 58.7122 10.2873 58.5608C10.2222 58.4094 10.1247 58.1587 10.0706 58.0036C10.0165 57.8486 9.94169 57.6551 9.90439 57.5736C9.86719 57.4922 9.83669 57.4175 9.83669 57.4076C9.83669 57.3978 9.79079 57.2899 9.73461 57.1678C9.67847 57.0458 9.63254 56.9256 9.63254 56.9007C9.63254 56.7955 9.28177 56.0107 9.20314 55.94C9.12754 55.872 9.08284 55.8638 8.7881 55.8638C8.5003 55.8638 8.44389 55.8737 8.34962 55.94ZM28.8817 55.9166C28.8307 55.9442 28.7733 55.9959 28.7541 56.0316C28.7055 56.1221 28.7056 69.4644 28.7542 69.6033C28.8264 69.8096 28.8771 69.8183 30.0042 69.8183C30.9847 69.8183 31.027 69.8156 31.1134 69.7479C31.1628 69.7092 31.2223 69.6444 31.2456 69.604C31.2785 69.5468 31.2917 68.588 31.3049 65.3136L31.3219 61.0968L31.424 61.2114C31.4801 61.2745 31.595 61.3983 31.6792 61.4866C31.7634 61.5748 31.9394 61.7662 32.0704 61.9119C32.2014 62.0576 32.4923 62.3763 32.7169 62.6201C32.9414 62.8639 33.375 63.3399 33.6804 63.6778C33.9859 64.0156 34.2576 64.3005 34.2843 64.3106C34.3111 64.3209 34.3329 64.3487 34.3329 64.3726C34.3329 64.3965 34.4157 64.4998 34.5169 64.6023C34.6181 64.7048 34.8961 65.002 35.1346 65.2628C35.3731 65.5236 35.7224 65.9018 35.9109 66.1033C36.0993 66.3048 36.2768 66.5029 36.3054 66.5436C36.3339 66.5843 36.4185 66.6797 36.4934 66.7556C36.6431 66.9075 36.7478 67.0209 37.2259 67.549C37.403 67.7446 37.73 68.1028 37.9527 68.3449C38.437 68.8717 38.6973 69.1574 38.9357 69.4239C39.0332 69.533 39.1963 69.7045 39.2979 69.8049L39.4828 69.9876H39.8194C40.1461 69.9876 40.159 69.9847 40.2555 69.8886L40.3549 69.7896V63.0621C40.3549 57.115 40.3489 56.3231 40.3033 56.2353C40.2029 56.0419 40.1494 56.0332 39.0654 56.0332C38.0141 56.0332 37.954 56.0414 37.8462 56.1993C37.79 56.2817 37.7852 56.5411 37.7692 60.3653L37.7522 64.4433L37.5651 64.249C37.3056 63.9796 37.1672 63.8339 36.6975 63.3349C36.473 63.0964 36.1974 62.807 36.0851 62.6919C35.9728 62.5767 35.7125 62.3013 35.5067 62.0798C35.3009 61.8583 35.0636 61.606 34.9794 61.5192C34.7892 61.3232 34.3872 60.9002 34.0943 60.5879C33.1993 59.6339 32.7581 59.1682 32.5576 58.9661C32.43 58.8374 32.3256 58.7231 32.3256 58.7123C32.3256 58.7014 32.2222 58.587 32.0959 58.458C31.7507 58.1054 31.5648 57.9106 31.1348 57.4508C30.9196 57.2206 30.6517 56.9368 30.5394 56.82C30.4271 56.7032 30.2434 56.5115 30.1311 56.394C30.0189 56.2765 29.8589 56.1092 29.7756 56.0221L29.6243 55.8638L29.2993 55.8652C29.0793 55.8661 28.9444 55.8827 28.8817 55.9166ZM86.6097 55.9253C86.5128 55.9838 86.5041 56.0098 86.3983 56.5601C86.288 57.1339 86.1233 58.05 86.0272 58.6242C85.9992 58.7919 85.9163 59.2415 85.8432 59.6234C85.7699 60.0053 85.6935 60.4425 85.6732 60.595C85.6529 60.7475 85.5773 61.1742 85.5051 61.5433C85.4329 61.9124 85.356 62.3364 85.3342 62.4854C85.3124 62.6345 85.2348 63.0765 85.1618 63.4677C85.0887 63.8589 84.9967 64.3694 84.9572 64.6023C84.9178 64.8352 84.8152 65.4067 84.7292 65.8724C84.6433 66.3381 84.5513 66.864 84.5246 67.0409C84.474 67.3779 84.3352 68.1405 84.1886 68.8869C84.0869 69.4048 84.0945 69.5832 84.224 69.7122L84.3135 69.8013L85.3665 69.8112L86.4194 69.8211L86.5438 69.7076C86.6671 69.5951 86.6689 69.5895 86.7655 69.0204C86.819 68.7048 86.8631 68.397 86.8633 68.3364C86.8636 68.2757 86.9556 67.6724 87.0679 66.9957C87.1802 66.3189 87.272 65.7252 87.272 65.6763C87.272 65.6274 87.3638 65.0343 87.4761 64.3582C87.5883 63.6821 87.6803 63.0756 87.6806 63.0104C87.681 62.9452 87.7114 62.7242 87.7484 62.5193C87.7853 62.3144 87.8157 62.1406 87.816 62.1332C87.8172 62.0948 88.0056 62.4798 88.0759 62.6643C88.1204 62.7813 88.2104 62.9829 88.2759 63.1124C88.3414 63.2418 88.4397 63.4585 88.4945 63.594C88.5493 63.7294 88.6562 63.9622 88.7321 64.1112C88.808 64.2602 88.8703 64.4012 88.8706 64.4246C88.8709 64.448 88.963 64.6511 89.0752 64.876C89.1875 65.1009 89.2794 65.2993 89.2794 65.3168C89.2794 65.3343 89.3712 65.5399 89.4835 65.7736C89.5958 66.0073 89.6876 66.2129 89.6876 66.2305C89.6876 66.2482 89.7502 66.3882 89.8268 66.5417C89.9033 66.6952 90.0103 66.9312 90.0645 67.0662C90.1188 67.2012 90.2322 67.4486 90.3167 67.616C90.4011 67.7833 90.4702 67.9369 90.4702 67.9572C90.4702 67.9775 90.562 68.1801 90.6743 68.4073C90.7866 68.6345 90.8784 68.8375 90.8784 68.8586C90.8784 68.8797 90.9626 69.0663 91.0656 69.2733C91.1685 69.4804 91.2527 69.674 91.2527 69.7036C91.2527 69.7331 91.3047 69.8091 91.3684 69.8725C91.4839 69.9875 91.4843 69.9876 91.8123 69.9876C92.1838 69.9876 92.3097 69.9437 92.3919 69.7855C92.4202 69.7309 92.4435 69.6691 92.4435 69.6483C92.4435 69.6275 92.5353 69.4195 92.6476 69.1862C92.7599 68.9529 92.8517 68.7487 92.8517 68.7325C92.8517 68.7163 92.9359 68.5273 93.0389 68.3126C93.1418 68.0978 93.226 67.9116 93.226 67.8987C93.226 67.8859 93.3178 67.6803 93.4301 67.4419C93.5424 67.2036 93.6343 66.9946 93.6343 66.9775C93.6343 66.9605 93.7261 66.7565 93.8384 66.5242C93.9507 66.2919 94.0425 66.0862 94.0425 66.0671C94.0425 66.0479 94.0974 65.9201 94.1645 65.783C94.2317 65.6459 94.3235 65.4583 94.3687 65.3662C94.4138 65.274 94.4508 65.181 94.4508 65.1594C94.4508 65.1377 94.5216 64.9769 94.6081 64.8019C94.6946 64.6269 94.8017 64.3883 94.8461 64.2717C94.8905 64.155 94.9958 63.9229 95.0801 63.7559C95.1644 63.5888 95.2333 63.4352 95.2333 63.4146C95.2333 63.394 95.3227 63.1917 95.4319 62.9651C95.5411 62.7385 95.6409 62.5111 95.6538 62.4596C95.6839 62.3386 95.7993 62.1497 95.8206 62.1862C95.8297 62.2018 95.8855 62.5269 95.9445 62.9088C96.1419 64.1846 96.4187 65.9613 96.6252 67.278C96.7377 67.9952 96.8543 68.7573 96.8843 68.9715C96.9582 69.4991 96.9844 69.5851 97.1062 69.7014L97.211 69.8013L98.255 69.8101C99.4171 69.8198 99.4273 69.8181 99.533 69.6031L99.5969 69.4732L99.4332 68.6211C99.3432 68.1526 99.2553 67.6625 99.2379 67.5321C99.2206 67.4017 99.1303 66.8911 99.0374 66.3974C98.9444 65.9038 98.8539 65.3779 98.8361 65.2289C98.8183 65.0799 98.7815 64.8436 98.7543 64.7039C98.727 64.5642 98.6601 64.2213 98.6055 63.9418C98.5509 63.6624 98.4883 63.3119 98.4663 63.1628C98.4443 63.0138 98.3898 62.6861 98.3451 62.4346C98.3005 62.1831 98.2085 61.6649 98.1408 61.283C98.073 60.9012 97.9566 60.2534 97.882 59.8436C97.8075 59.4337 97.7153 58.9079 97.6772 58.675C97.6392 58.4422 97.5253 57.807 97.4243 57.2636C97.3233 56.7201 97.2407 56.2352 97.2407 56.1859C97.2407 55.9548 97.0849 55.8638 96.6895 55.864C96.3375 55.8641 96.2178 55.9257 96.1138 56.1599C95.9923 56.4334 95.6425 57.1821 95.4472 57.587C95.345 57.7989 95.2396 58.0335 95.2131 58.1082C95.1866 58.1831 95.1353 58.2919 95.0991 58.3503C95.0629 58.4086 94.9777 58.5855 94.9099 58.7435C94.842 58.9014 94.7124 59.1831 94.6219 59.3694C94.2255 60.1849 94.0425 60.5751 94.0425 60.6048C94.0425 60.6223 93.9583 60.7986 93.8554 60.9966C93.7525 61.1947 93.6683 61.3727 93.6683 61.3923C93.6683 61.4119 93.578 61.6125 93.4678 61.8381C93.3575 62.0637 93.1643 62.4693 93.0384 62.7394C92.9125 63.0096 92.7272 63.4003 92.6265 63.6077C92.5258 63.8151 92.4435 63.996 92.4435 64.0096C92.4435 64.0232 92.3613 64.204 92.261 64.4114C92.1606 64.6189 92.0501 64.8572 92.0154 64.941C91.9807 65.0248 91.9275 65.1353 91.8972 65.1865L91.8421 65.2796L91.7515 65.0955C91.7017 64.9942 91.6609 64.8968 91.6609 64.8789C91.6609 64.861 91.5691 64.6667 91.4568 64.4471C91.3445 64.2275 91.2527 64.0346 91.2527 64.0185C91.2527 64.0024 91.17 63.8185 91.0689 63.6099C90.9679 63.4012 90.7831 63.0096 90.6583 62.7394C90.5335 62.4693 90.3483 62.0796 90.2467 61.8733C90.145 61.6671 90.0619 61.4842 90.062 61.4669C90.0621 61.4496 89.9724 61.2526 89.8629 61.029C89.7533 60.8055 89.5755 60.4321 89.4677 60.1992C89.3599 59.9663 89.1816 59.5905 89.0714 59.364C88.9613 59.1375 88.8711 58.9394 88.871 58.9237C88.871 58.908 88.7792 58.7123 88.667 58.4888C88.5548 58.2652 88.4629 58.0704 88.4629 58.0559C88.4629 58.0413 88.3799 57.8584 88.2785 57.6494C88.112 57.306 87.7417 56.5124 87.5756 56.1429C87.4779 55.9257 87.3507 55.8641 86.9999 55.8641C86.7813 55.8642 86.686 55.8791 86.6097 55.9253ZM21.1049 56.0899C20.8776 56.2014 20.894 55.6686 20.894 62.9422C20.894 69.023 20.8985 69.5565 20.9501 69.6349C21.066 69.8111 21.1158 69.8183 22.2107 69.8181C23.1676 69.818 23.2309 69.8142 23.3372 69.7497C23.563 69.6126 23.5478 70.1052 23.5478 62.9178C23.5478 56.6582 23.5452 56.383 23.4856 56.2724C23.3619 56.0427 23.3102 56.0331 22.2044 56.034C21.3624 56.0346 21.2007 56.0428 21.1049 56.0899ZM44.2102 56.0828C44.0063 56.171 43.9953 56.2316 43.9953 57.27C43.9953 57.8467 44.0088 58.2303 44.0304 58.2705C44.1183 58.4341 44.1599 58.438 45.8138 58.438H47.3636V63.9412C47.3636 68.9405 47.3686 69.4569 47.4188 69.5818C47.5125 69.8149 47.531 69.8183 48.7032 69.8183H49.7399L49.8436 69.7314C49.9006 69.6836 49.963 69.5884 49.9821 69.5198C50.0052 69.437 50.017 67.5488 50.0171 63.9164L50.0173 58.438H51.5671C53.221 58.438 53.2626 58.4341 53.3505 58.2705C53.3721 58.2303 53.3856 57.8467 53.3856 57.27C53.3856 56.2297 53.3778 56.1871 53.1693 56.0886C53.0626 56.0382 52.6582 56.0333 48.6853 56.0345C45.0413 56.0356 44.3006 56.0436 44.2102 56.0828ZM57.2131 56.0801C56.9913 56.1764 57.009 55.584 57.009 62.9302V69.6135L57.1033 69.7074L57.1976 69.8013L61.3391 69.8103C64.4058 69.817 65.5052 69.8091 65.5755 69.7802C65.7675 69.7013 65.7698 69.6874 65.7698 68.6111C65.7698 68.0673 65.7603 67.5976 65.7487 67.5675C65.6898 67.4148 65.6637 67.4135 62.5505 67.4135H59.6117V65.72V64.0265H62.0847H64.5578L64.6699 63.9503C64.7316 63.9084 64.7976 63.8299 64.8166 63.7759C64.8365 63.7194 64.8512 63.312 64.8512 62.8157C64.8512 61.8557 64.8374 61.7832 64.6309 61.6562C64.5223 61.5894 64.467 61.5879 62.0658 61.5879H59.6117V60.0129V58.438H62.5734C65.7165 58.438 65.6888 58.4393 65.7487 58.284C65.7603 58.2539 65.7698 57.7808 65.7698 57.2328C65.7698 56.2751 65.7671 56.2337 65.7004 56.1673C65.6622 56.1293 65.5923 56.0836 65.5451 56.0657C65.4918 56.0456 63.91 56.0337 61.3872 56.0345C58.1109 56.0356 57.2952 56.0445 57.2131 56.0801ZM70.584 56.0647C70.5465 56.0806 70.4777 56.1345 70.4309 56.1846L70.3458 56.2757L70.3371 62.8958C70.3293 68.7724 70.3341 69.527 70.3801 69.6157C70.4812 69.8101 70.5321 69.8183 71.6387 69.8183C72.4723 69.8183 72.6629 69.8094 72.7455 69.7669C72.9563 69.6584 72.9485 69.7645 72.9485 66.9744V64.432L74.0101 64.4409L75.0716 64.4499L76.3831 67.0494C77.1045 68.4791 77.7195 69.6832 77.7499 69.7251L77.8051 69.8013H79.054H80.303L80.4023 69.6907C80.535 69.5429 80.5429 69.2849 80.4202 69.1051C80.3754 69.0395 80.2655 68.8416 80.1759 68.6654C80.0864 68.4892 79.9864 68.3061 79.9537 68.2587C79.9211 68.2112 79.8151 68.0207 79.7184 67.8353C79.6216 67.6499 79.4381 67.3077 79.3108 67.0748C79.1834 66.842 78.9997 66.499 78.9026 66.3127C78.8055 66.1265 78.7115 65.9564 78.6937 65.9349C78.6759 65.9134 78.5768 65.7316 78.4734 65.5309C78.37 65.3302 78.2567 65.1297 78.2217 65.0853C78.1866 65.0408 78.1397 64.9483 78.1176 64.8796C78.0955 64.8109 78.0587 64.7319 78.0358 64.7039C78.013 64.676 77.9493 64.5688 77.8943 64.4657L77.7942 64.2782L78.2625 64.0303C78.52 63.894 78.7985 63.723 78.8814 63.6504C78.9642 63.5779 79.045 63.5183 79.0608 63.5181C79.1021 63.5175 79.719 62.923 79.719 62.8837C79.719 62.8657 79.7563 62.8109 79.8018 62.762C80.079 62.4643 80.4005 61.8365 80.516 61.3677C80.7028 60.6098 80.7114 60.0913 80.5503 59.3186C80.4037 58.6157 79.9989 57.8845 79.4487 57.3284C79.262 57.1398 78.8264 56.7783 78.7858 56.7783C78.7725 56.7783 78.6976 56.7347 78.6194 56.6814C78.3993 56.5313 78.2063 56.4422 77.7983 56.3025C77.0312 56.0398 77.2738 56.0553 73.7821 56.0451C72.0606 56.0401 70.6214 56.0489 70.584 56.0647ZM103.75 56.088C103.525 56.1981 103.535 56.0022 103.535 60.5185C103.536 63.7545 103.546 64.703 103.585 65.1612C103.64 65.8195 103.734 66.1992 103.962 66.6904C103.989 66.7491 104.011 66.8159 104.011 66.8388C104.011 66.8617 104.092 67.0168 104.19 67.1835C104.288 67.3501 104.394 67.5348 104.425 67.5939C104.456 67.653 104.537 67.7624 104.606 67.8369C104.674 67.9114 104.75 68.0105 104.776 68.057C104.857 68.207 105.628 68.9123 105.867 69.0555C106.352 69.346 106.532 69.4457 106.57 69.4458C106.594 69.4459 106.66 69.4741 106.717 69.5084C107.296 69.86 108.791 70.0821 109.727 69.9555C110.597 69.8378 110.849 69.7623 111.615 69.3902C112.023 69.1921 112.224 69.061 112.623 68.7332C112.912 68.4954 113.538 67.8345 113.538 67.7671C113.538 67.7543 113.607 67.6472 113.692 67.529C113.776 67.4108 113.889 67.2183 113.942 67.1013C113.996 66.9843 114.085 66.7895 114.141 66.6684C114.251 66.431 114.32 66.2119 114.402 65.8386C114.543 65.1906 114.541 65.259 114.541 60.7209C114.541 55.9212 114.555 56.2351 114.335 56.0998C114.234 56.0375 114.162 56.0332 113.224 56.0332C112.578 56.0332 112.182 56.0465 112.113 56.0707C112.05 56.0925 111.98 56.1531 111.946 56.2147C111.892 56.3132 111.886 56.6427 111.869 60.6734C111.85 65.0034 111.849 65.0268 111.777 65.2458C111.545 65.9472 111.39 66.2225 111.025 66.5838C110.735 66.8706 110.54 67.0037 110.197 67.1474C109.382 67.4887 108.648 67.4912 107.897 67.1552C107.799 67.111 107.705 67.0748 107.69 67.0748C107.652 67.0748 107.221 66.7562 107.078 66.6225C106.775 66.3386 106.465 65.7916 106.336 65.3136L106.24 64.9579L106.223 60.6395C106.209 57.1593 106.197 56.3059 106.161 56.2431C106.136 56.2002 106.068 56.1354 106.008 56.0992C105.907 56.0379 105.83 56.0335 104.879 56.0341C104.02 56.0346 103.841 56.0432 103.75 56.088ZM118.315 56.066C118.276 56.0817 118.203 56.1429 118.153 56.2019L118.063 56.3093V57.236C118.063 57.7456 118.077 58.201 118.095 58.2478C118.167 58.4352 118.193 58.438 119.898 58.438H121.465V63.9746C121.465 69.0345 121.47 69.5212 121.521 69.6276C121.551 69.6916 121.613 69.7607 121.658 69.7811C121.712 69.8055 122.096 69.8183 122.772 69.8183C123.766 69.8183 123.806 69.8157 123.894 69.7476C124.098 69.5876 124.085 69.9878 124.085 63.9605V58.438H125.645H127.205L127.319 58.3614C127.382 58.3192 127.443 58.2469 127.456 58.2005C127.469 58.1541 127.482 57.7275 127.483 57.2525C127.487 56.2782 127.472 56.2036 127.249 56.0925C127.137 56.037 126.854 56.0334 122.758 56.0354C120.353 56.0365 118.354 56.0503 118.315 56.066ZM131.27 56.0897C131.209 56.1199 131.144 56.172 131.126 56.2054C131.105 56.2438 131.096 58.7339 131.102 62.9647L131.11 69.6632L131.226 69.7411L131.343 69.8191L135.502 69.8102L139.661 69.8013L139.749 69.7192L139.837 69.6371V68.6297C139.837 68.0756 139.827 67.5976 139.816 67.5675C139.756 67.4122 139.784 67.4135 136.641 67.4135H133.679V65.72V64.0265H136.15C138.611 64.0265 138.622 64.0262 138.738 63.9545C138.803 63.9149 138.869 63.8453 138.887 63.7999C138.904 63.7544 138.918 63.3106 138.918 62.8135C138.918 61.9768 138.913 61.9016 138.852 61.8012C138.715 61.5785 138.836 61.5879 136.13 61.5879H133.679V60.0129V58.438L136.647 58.4378C139.547 58.4377 139.618 58.4361 139.726 58.3706L139.837 58.3035V57.2846C139.837 56.6196 139.824 56.2421 139.8 56.1975C139.71 56.0289 139.823 56.0331 135.458 56.034C131.768 56.0346 131.372 56.0399 131.27 56.0897ZM76.5887 58.52C76.973 58.6453 77.2761 58.8266 77.5161 59.0746C77.6424 59.2052 77.7457 59.329 77.7457 59.3499C77.7457 59.3707 77.7828 59.4446 77.828 59.514C77.9508 59.7025 78.0519 60.0713 78.0519 60.3311C78.0519 60.8042 77.8219 61.3418 77.4611 61.7118C77.3463 61.8296 77.242 61.9261 77.2293 61.9263C77.2166 61.9264 77.1124 61.9822 76.9978 62.0502C76.5855 62.2947 76.5435 62.2991 74.6419 62.2991H72.9485V60.3661V58.433L74.6752 58.446C76.2236 58.4577 76.4211 58.4653 76.5887 58.52ZM56.6307 74.0097C56.6203 74.0423 56.5289 74.2374 56.4276 74.4432C56.3263 74.6491 56.2435 74.8307 56.2435 74.8468C56.2435 74.8629 56.1516 75.0628 56.0393 75.291C55.9271 75.5192 55.8352 75.7195 55.8352 75.7361C55.8352 75.7528 55.7735 75.8875 55.6982 76.0354C55.6228 76.1833 55.5005 76.4443 55.4263 76.6152C55.3521 76.7861 55.2619 76.9767 55.2257 77.0386C55.1895 77.1005 55.1055 77.2807 55.0391 77.439C54.9726 77.5974 54.8567 77.848 54.7813 77.9959C54.706 78.1439 54.6444 78.2788 54.6444 78.2959C54.6444 78.3129 54.5525 78.509 54.4403 78.7316C54.328 78.9541 54.2361 79.1524 54.2361 79.1721C54.2361 79.1918 54.1672 79.3449 54.083 79.5124C53.9278 79.821 53.8968 79.9666 53.9708 80.0402C53.9988 80.0682 54.1677 80.0809 54.5098 80.0809C54.9449 80.0809 55.0151 80.0732 55.0631 80.0204C55.1257 79.9515 55.4269 79.3597 55.4269 79.3055C55.4269 79.2859 55.4606 79.2008 55.5017 79.1165L55.5766 78.9632H56.8279H58.0793L58.148 79.0973C58.1858 79.1711 58.2168 79.2476 58.2168 79.2674C58.2168 79.3161 58.4859 79.8718 58.5656 79.9877L58.6297 80.0809H59.1353C59.8303 80.0809 59.852 80.0561 59.5962 79.557C59.5129 79.3944 59.427 79.2082 59.4055 79.1432C59.384 79.0783 59.2838 78.8596 59.1828 78.6572C59.0819 78.4548 58.9993 78.2729 58.9993 78.253C58.9993 78.2331 58.9171 78.0533 58.8167 77.8534C58.7163 77.6534 58.6226 77.4517 58.6085 77.4052C58.5944 77.3586 58.5103 77.1757 58.4217 76.9987C58.333 76.8217 58.2487 76.6388 58.2345 76.5923C58.2201 76.5457 58.1184 76.3257 58.0084 76.1033C57.8985 75.8809 57.8085 75.6821 57.8085 75.6615C57.8085 75.6409 57.7166 75.4437 57.6044 75.2234C57.4921 75.003 57.4003 74.8055 57.4003 74.7845C57.4003 74.7635 57.3123 74.5673 57.2047 74.3484L57.009 73.9505L56.8293 73.9504C56.688 73.9504 56.6455 73.9631 56.6307 74.0097ZM92.5523 73.9911C92.4932 74.05 92.4932 79.9813 92.5523 80.0402C92.611 80.0987 93.5857 80.0971 93.6237 80.0386C93.6389 80.0153 93.6589 79.1671 93.6683 78.1538L93.6853 76.3113L94.0895 76.7482C94.3118 76.9884 94.5839 77.2841 94.6943 77.4052C94.9025 77.6336 95.1571 77.9091 95.4311 78.2024C95.5188 78.2963 95.6901 78.4846 95.8117 78.621C95.9333 78.7573 96.1053 78.9473 96.1938 79.043C96.2823 79.1388 96.5426 79.4257 96.7722 79.6805L97.1896 80.1438L97.3841 80.1462C97.5443 80.1482 97.5848 80.1369 97.6144 80.0818C97.6391 80.0359 97.6475 79.0842 97.6411 77.0491C97.6331 74.4565 97.6255 74.0794 97.5809 74.0513C97.5528 74.0336 97.3227 74.019 97.0696 74.0187C96.7075 74.0183 96.5932 74.0294 96.5338 74.0709L96.4581 74.1236V75.8768V77.6301L96.2455 77.4171C95.9642 77.1353 95.7069 76.866 95.2333 76.358C95.0181 76.1271 94.7637 75.8606 94.6678 75.7657C94.572 75.6708 94.3815 75.4712 94.2444 75.3222C94.1074 75.1731 93.7591 74.8035 93.4704 74.5008L92.9456 73.9504H92.7694C92.6725 73.9504 92.5748 73.9687 92.5523 73.9911ZM108.962 73.9835C108.832 74.0118 108.621 74.0782 108.247 74.2086C108.049 74.2777 107.597 74.5746 107.385 74.7757C106.99 75.1484 106.643 75.7429 106.49 76.3076C106.384 76.6975 106.384 77.4126 106.489 77.8034C106.787 78.9075 107.538 79.6859 108.657 80.049C108.985 80.1555 109.893 80.183 110.309 80.0991C110.821 79.9959 111.599 79.7012 111.709 79.5693C111.763 79.5041 111.768 79.3926 111.768 78.3404C111.768 77.3478 111.761 77.1724 111.715 77.1079C111.663 77.0333 111.654 77.0326 110.751 77.0326C109.911 77.0326 109.835 77.0375 109.783 77.0945C109.737 77.1452 109.727 77.2335 109.727 77.5804C109.727 78.1253 109.719 78.1164 110.215 78.1164H110.578V78.4485V78.7805L110.348 78.8607C110.033 78.9707 109.343 78.9984 109.074 78.9119C108.824 78.8315 108.421 78.5777 108.252 78.3944C108.174 78.3102 108.095 78.2246 108.074 78.2042C108.054 78.1839 107.982 78.0529 107.913 77.9132C107.608 77.2903 107.61 76.8101 107.921 76.1689C108.302 75.3829 109.2 74.9467 110.008 75.1551C110.263 75.2209 110.703 75.4417 110.811 75.5575C110.938 75.6945 111.06 75.6735 111.245 75.483C111.716 74.9975 111.787 74.8515 111.624 74.7079C111.359 74.476 110.948 74.2501 110.544 74.1151C110.129 73.9767 110.105 73.9728 109.608 73.9635C109.327 73.9582 109.036 73.9673 108.962 73.9835ZM28.6171 74.0859C28.5564 74.1463 28.5491 74.1988 28.5491 74.5718C28.5491 74.9338 28.5574 74.9974 28.6113 75.0459C28.6648 75.0941 28.7678 75.102 29.3428 75.102H30.0121V77.5162C30.0121 79.6464 30.0183 79.9392 30.065 80.0056C30.1157 80.0776 30.1398 80.0809 30.6196 80.0809C30.9644 80.0809 31.134 80.0682 31.162 80.0402C31.193 80.0094 31.2029 79.4103 31.2029 77.5508V75.102H31.9105C32.4156 75.102 32.6299 75.0903 32.659 75.0614C32.6868 75.0337 32.6998 74.872 32.6998 74.5545C32.6998 74.1282 32.6942 74.0853 32.634 74.0532C32.5909 74.0302 31.9 74.0182 30.6267 74.0182C28.7305 74.0182 28.6836 74.0198 28.6171 74.0859ZM41.2298 74.0779C41.1756 74.1374 41.1715 74.3519 41.1715 77.0708C41.1715 79.3036 41.1812 80.0093 41.2123 80.0402C41.2403 80.0682 41.4089 80.0809 41.7498 80.0809C42.0908 80.0809 42.2594 80.0682 42.2874 80.0402C42.3175 80.0103 42.3282 79.7036 42.3282 78.8708V77.742L42.7898 77.7514L43.2514 77.7608L43.3703 77.9979C43.4356 78.1283 43.5273 78.3112 43.5738 78.4043C43.6204 78.4975 43.7089 78.6727 43.7703 78.7938C43.8318 78.9149 43.9936 79.235 44.1299 79.5051C44.2662 79.7752 44.3931 80.0153 44.4118 80.0386C44.4366 80.0693 44.5978 80.0809 45.0007 80.0809C45.5864 80.0809 45.6624 80.0618 45.6624 79.9145C45.6624 79.8494 45.242 79.0138 45.1656 78.9271C45.14 78.8979 45.1008 78.8224 45.0787 78.7592C45.0396 78.6476 44.9166 78.4285 44.7549 78.1823C44.7114 78.1162 44.6758 78.0384 44.6758 78.0096C44.6758 77.9808 44.6313 77.8914 44.577 77.8108L44.4782 77.6644L44.6705 77.5469C44.7764 77.4823 44.9045 77.4078 44.9554 77.3815C45.1111 77.3007 45.4114 76.9398 45.5362 76.6832C45.7884 76.1647 45.7968 75.6302 45.5602 75.1486C45.5042 75.0346 45.4583 74.9255 45.4583 74.9062C45.4583 74.8598 45.0295 74.4242 44.8871 74.326C44.8256 74.2835 44.6419 74.2012 44.4789 74.1431L44.1825 74.0374L42.7353 74.0255C41.3499 74.0142 41.2857 74.0164 41.2298 74.0779ZM68.2079 74.0683C68.156 74.1199 68.1514 74.3683 68.1514 77.0492C68.1514 78.6577 68.1606 79.9978 68.172 80.0273C68.1903 80.0748 68.3345 80.0809 69.4456 80.0809C70.8568 80.0809 70.965 80.0686 71.5275 79.8439C71.9663 79.6687 72.308 79.4263 72.6588 79.0415C72.9295 78.7446 73.2059 78.2341 73.3152 77.8292C73.397 77.5265 73.3937 76.5155 73.3101 76.2366C73.2425 76.0113 72.992 75.4999 72.8436 75.2845C72.5619 74.8756 71.862 74.3384 71.4686 74.229C71.375 74.203 71.1913 74.1504 71.0603 74.1122C70.8439 74.0491 70.7051 74.0414 69.5433 74.0274C68.3838 74.0135 68.2591 74.0173 68.2079 74.0683ZM82.2443 74.0709L82.1687 74.1236V77.0642C82.1687 79.5287 82.1763 80.0112 82.2158 80.0438C82.2479 80.0703 82.4244 80.0797 82.7677 80.0733C83.2678 80.0641 83.2729 80.0632 83.3154 79.9793C83.3491 79.9131 83.3586 79.2749 83.3589 77.0563C83.3594 74.5777 83.3529 74.2054 83.3075 74.1181L83.2556 74.0182H82.7878C82.4194 74.0182 82.3038 74.0294 82.2443 74.0709ZM43.9726 75.1705C44.4344 75.3425 44.6666 75.8393 44.4672 76.2285C44.3433 76.4702 44.2571 76.5612 44.0634 76.6545C43.8804 76.7427 43.8593 76.7449 43.1193 76.755L42.3623 76.7652V75.9336V75.102H43.0754C43.7081 75.102 43.8094 75.1098 43.9726 75.1705ZM70.7044 75.1841C71.3538 75.3526 71.8384 75.8018 72.0695 76.4496C72.1682 76.7262 72.1892 77.1924 72.1157 77.4723C71.956 78.0799 71.6112 78.5202 71.0974 78.7724C70.7419 78.9469 70.6457 78.9628 69.946 78.963L69.3081 78.9632V77.0495V75.1359H69.9134C70.3272 75.1359 70.5774 75.1511 70.7044 75.1841ZM56.9396 76.4483C56.9913 76.5741 57.1238 76.8623 57.2339 77.0888C57.3441 77.3153 57.4343 77.5177 57.4343 77.5385C57.4343 77.5594 57.4804 77.6675 57.5368 77.7787L57.6394 77.981H56.8371H56.0347L56.0588 77.9047C56.0721 77.8628 56.1114 77.7754 56.1462 77.7105C56.181 77.6456 56.2094 77.5748 56.2094 77.5533C56.2094 77.5318 56.264 77.402 56.3308 77.2649C56.5618 76.7904 56.5832 76.7435 56.6884 76.4822C56.7466 76.3378 56.8058 76.2197 56.8199 76.2197C56.8341 76.2197 56.888 76.3226 56.9396 76.4483Z" fill="#A1A6B1"/>
</svg>
