<svg width="35" height="35" viewBox="0 0 35 35" fill="none" xmlns="http://www.w3.org/2000/svg">
<path fill-rule="evenodd" clip-rule="evenodd" d="M2.65332 17.3629C2.65332 21.308 4.2205 25.0915 7.01011 27.8811C9.79971 30.6707 13.5832 32.2379 17.5283 32.2379C21.4734 32.2379 25.2569 30.6707 28.0465 27.8811C30.8361 25.0915 32.4033 21.308 32.4033 17.3629C32.4033 13.4178 30.8361 9.63431 28.0465 6.8447C25.2569 4.0551 21.4734 2.48792 17.5283 2.48792C13.5832 2.48792 9.79971 4.0551 7.01011 6.8447C4.2205 9.63431 2.65332 13.4178 2.65332 17.3629V17.3629ZM34.5283 17.3629C34.5283 21.8716 32.7373 26.1956 29.5491 29.3837C26.361 32.5718 22.037 34.3629 17.5283 34.3629C13.0196 34.3629 8.69562 32.5718 5.50751 29.3837C2.31939 26.1956 0.52832 21.8716 0.52832 17.3629C0.52832 12.8542 2.31939 8.53022 5.50751 5.3421C8.69562 2.15398 13.0196 0.362915 17.5283 0.362915C22.037 0.362915 26.361 2.15398 29.5491 5.3421C32.7373 8.53022 34.5283 12.8542 34.5283 17.3629V17.3629ZM12.9681 23.3193C12.7688 23.5188 12.4985 23.631 12.2166 23.6312C11.9346 23.6314 11.6641 23.5196 11.4646 23.3204C11.2651 23.1211 11.1529 22.8508 11.1527 22.5689C11.1525 22.2869 11.2643 22.0164 11.4636 21.8169L20.1697 13.1129H14.2877C14.0059 13.1129 13.7357 13.001 13.5364 12.8017C13.3371 12.6025 13.2252 12.3322 13.2252 12.0504C13.2252 11.7686 13.3371 11.4984 13.5364 11.2991C13.7357 11.0999 14.0059 10.9879 14.2877 10.9879H22.7346C23.0164 10.9879 23.2866 11.0999 23.4859 11.2991C23.6851 11.4984 23.7971 11.7686 23.7971 12.0504V20.4973C23.7971 20.7791 23.6851 21.0493 23.4859 21.2486C23.2866 21.4478 23.0164 21.5598 22.7346 21.5598C22.4528 21.5598 22.1825 21.4478 21.9833 21.2486C21.784 21.0493 21.6721 20.7791 21.6721 20.4973V14.6153L12.9681 23.3193V23.3193Z" fill="#181818"/>
</svg>
