<svg width="46" height="47" viewBox="0 0 46 47" fill="none" xmlns="http://www.w3.org/2000/svg">
<path d="M4.3125 20.4946H41.6875V29.1196H4.3125V20.4946Z" fill="#231F20"/>
<path d="M5.75 26.9634V20.4946H40.25V26.9634C40.25 26.9634 43.125 26.9634 43.125 30.5571C43.125 34.1509 40.25 34.1509 40.25 34.1509C40.25 39.9009 27.3125 44.9321 23 44.9321C18.6875 44.9321 5.75 39.9009 5.75 34.1509C5.75 34.1509 2.875 34.1509 2.875 30.5571C2.875 26.9634 5.75 26.9634 5.75 26.9634Z" fill="#B47D56"/>
<path d="M14.375 26.1008C10.7812 26.1008 9.34375 27.3946 9.34375 28.6883C9.34375 29.9821 9.34375 31.8508 14.0875 31.8508C18.6875 31.8508 19.4062 31.2758 19.4062 29.3352C19.4062 28.0415 17.9688 26.1008 14.375 26.1008Z" fill="#F5F5F5"/>
<path d="M14.7344 31.4915C16.5207 31.4915 17.9688 30.0434 17.9688 28.2571C17.9688 26.4708 16.5207 25.0227 14.7344 25.0227C12.9481 25.0227 11.5 26.4708 11.5 28.2571C11.5 30.0434 12.9481 31.4915 14.7344 31.4915Z" fill="#664E27"/>
<path d="M15.8125 28.2571C15.8125 28.8321 15.3094 29.3352 14.7344 29.3352C14.1594 29.3352 13.6562 28.8321 13.6562 28.2571C13.6562 27.6821 14.1594 27.179 14.7344 27.179C15.3094 27.179 15.8125 27.6821 15.8125 28.2571Z" fill="#231F20"/>
<path d="M9.34375 28.6166C9.34375 23.5853 19.4062 23.5853 19.4062 29.3353C17.9688 25.0228 10.7812 25.0228 9.34375 28.6166Z" fill="#664E27"/>
<path d="M31.625 26.1008C35.2188 26.1008 36.6562 27.3946 36.6562 28.6883C36.6562 29.9821 36.6563 31.8508 31.9125 31.8508C27.3125 31.8508 26.5938 31.2758 26.5938 29.3352C26.5938 28.0415 28.0312 26.1008 31.625 26.1008Z" fill="#F5F5F5"/>
<path d="M31.2656 31.4915C33.0519 31.4915 34.5 30.0434 34.5 28.2571C34.5 26.4708 33.0519 25.0227 31.2656 25.0227C29.4793 25.0227 28.0312 26.4708 28.0312 28.2571C28.0312 30.0434 29.4793 31.4915 31.2656 31.4915Z" fill="#664E27"/>
<path d="M30.1875 28.2571C30.1875 28.8321 30.6906 29.3352 31.2656 29.3352C31.8406 29.3352 32.3438 28.8321 32.3438 28.2571C32.3438 27.6821 31.8406 27.179 31.2656 27.179C30.6906 27.179 30.1875 27.6821 30.1875 28.2571Z" fill="#231F20"/>
<path d="M36.6562 28.6166C36.6562 23.5853 26.5938 23.5853 26.5938 29.3353C28.0312 25.0228 35.2188 25.0228 36.6562 28.6166Z" fill="#664E27"/>
<path d="M29.4688 36.954C29.4688 39.3978 26.2344 40.6196 23 40.6196C19.7656 40.6196 16.5312 39.3978 16.5312 36.954C16.5312 36.954 16.5312 36.3071 17.1781 36.3071H28.8219C29.4687 36.3071 29.4688 36.954 29.4688 36.954Z" fill="#664E27"/>
<path d="M42.4062 22.6509H3.59375C3.59375 12.3009 8.48125 4.32275 23 4.32275C37.5187 4.32275 42.4062 12.3009 42.4062 22.6509Z" fill="#FF9430"/>
<path d="M17.6094 22.6509H14.7344V5.47273L17.6094 4.61023V22.6509Z" fill="#DB802B"/>
<path d="M31.2656 22.6509H28.3906V4.61023L31.2656 5.47273V22.6509Z" fill="#DB802B"/>
<path d="M44.5625 24.2321H1.4375C1.4375 20.5665 11.0687 17.5477 23 17.5477C34.9313 17.5477 44.5625 20.5665 44.5625 24.2321Z" fill="#DB802B"/>
<path d="M29.8281 20.279H16.1719V5.11335C16.1719 0.728979 29.9 0.728979 29.9 5.11335V20.279H29.8281Z" fill="#FF9430"/>
</svg>
