<svg width="297" height="134" viewBox="0 0 297 134" fill="none" xmlns="http://www.w3.org/2000/svg">
<path d="M107.5 64.1763C65.9 35.3763 22.1667 92.843 5.5 125.176H291.5C288.167 117.843 276.9 93.3763 258.5 54.1763C208 -73.3237 159.5 100.176 107.5 64.1763Z" fill="url(#paint0_linear_31_3474)"/>
<g filter="url(#filter0_d_31_3474)">
<path d="M5.5 125.176C22.1667 92.843 65.9 35.3763 107.5 64.1763C159.5 100.176 208 -73.3237 258.5 54.1763C276.9 93.3763 288.167 117.843 291.5 125.176" stroke="#FF6C01" stroke-width="3"/>
</g>
<circle opacity="0.3" cx="237.5" cy="12.6599" r="12" fill="white"/>
<circle cx="237.5" cy="12.6599" r="7" fill="white"/>
<path opacity="0.4" d="M236.5 23.1599V128.16" stroke="#FF6C01" stroke-dasharray="7 5"/>
<path opacity="0.6" d="M2.488 20.6599H3.723V16.9419H5.946C7.935 16.9419 9.274 15.7719 9.274 13.9649C9.274 12.1449 7.922 10.9749 5.946 10.9749H2.488V20.6599ZM3.723 15.8629V12.0539H5.946C7.181 12.0539 8 12.8209 8 13.9519C8 15.0959 7.181 15.8629 5.946 15.8629H3.723ZM16.5818 16.9159C16.5818 15.1609 15.3338 13.6139 13.3708 13.6139C11.4468 13.6139 10.0168 15.1219 10.0168 17.2019C10.0168 19.2819 11.4858 20.8159 13.4618 20.8159C14.8788 20.8159 15.9968 20.0489 16.4258 19.0999L15.4508 18.5799C15.0868 19.2819 14.4498 19.8019 13.4748 19.8019C12.2658 19.8019 11.2388 18.9179 11.1868 17.5529H16.5298C16.5688 17.3319 16.5818 17.1109 16.5818 16.9159ZM11.2128 16.5909C11.3688 15.3429 12.2918 14.6019 13.3708 14.6019C14.3848 14.6019 15.3338 15.4469 15.3468 16.5909H11.2128ZM20.9418 20.8159C22.9308 20.8159 24.4908 19.2949 24.4908 17.2019C24.4908 15.1089 22.9438 13.6139 20.9418 13.6139C18.9398 13.6139 17.3928 15.1089 17.3928 17.2019C17.3928 19.2949 18.9528 20.8159 20.9418 20.8159ZM20.9418 19.7369C19.6028 19.7369 18.5758 18.6579 18.5758 17.2149C18.5758 15.7719 19.6028 14.6929 20.9418 14.6929C22.2808 14.6929 23.3078 15.7719 23.3078 17.2149C23.3078 18.6579 22.2808 19.7369 20.9418 19.7369ZM29.3809 13.6139C28.3149 13.6139 27.3789 14.0689 26.9109 14.8229V13.7699H25.8189V23.2599H26.9369V19.7109C27.4439 20.3999 28.3409 20.8159 29.3549 20.8159C31.3179 20.8159 32.8649 19.2949 32.8649 17.2019C32.8649 15.1089 31.3179 13.6139 29.3809 13.6139ZM29.3159 19.7369C27.9379 19.7369 26.9369 18.6709 26.9369 17.2149C26.9369 15.7589 27.9509 14.6929 29.3159 14.6929C30.6679 14.6929 31.6819 15.7589 31.6819 17.2149C31.6819 18.6709 30.6809 19.7369 29.3159 19.7369ZM34.1851 20.6599H35.3031V10.9749H34.1851V20.6599ZM43.1912 16.9159C43.1912 15.1609 41.9432 13.6139 39.9802 13.6139C38.0562 13.6139 36.6262 15.1219 36.6262 17.2019C36.6262 19.2819 38.0952 20.8159 40.0712 20.8159C41.4882 20.8159 42.6062 20.0489 43.0352 19.0999L42.0602 18.5799C41.6962 19.2819 41.0592 19.8019 40.0842 19.8019C38.8752 19.8019 37.8482 18.9179 37.7962 17.5529H43.1392C43.1782 17.3319 43.1912 17.1109 43.1912 16.9159ZM37.8222 16.5909C37.9782 15.3429 38.9012 14.6019 39.9802 14.6019C40.9942 14.6019 41.9432 15.4469 41.9562 16.5909H37.8222ZM46.7566 20.6599H47.9916V16.5779H52.9056V20.6599H54.1406V10.9749H52.9056V15.4989H47.9916V10.9749H46.7566V20.6599ZM55.879 12.4959H56.997V10.9749H55.879V12.4959ZM55.879 20.6599H56.997V13.7699H55.879V20.6599ZM61.5489 13.6919C60.7169 13.6919 60.0539 13.9909 59.6899 14.6279V13.7699H58.6109V20.6599H59.7289V16.5519C59.7289 15.4079 60.3919 14.7579 61.3799 14.7579H62.1079V13.6919H61.5489ZM69.4832 16.9159C69.4832 15.1609 68.2352 13.6139 66.2722 13.6139C64.3482 13.6139 62.9182 15.1219 62.9182 17.2019C62.9182 19.2819 64.3872 20.8159 66.3632 20.8159C67.7802 20.8159 68.8982 20.0489 69.3272 19.0999L68.3522 18.5799C67.9882 19.2819 67.3512 19.8019 66.3762 19.8019C65.1672 19.8019 64.1402 18.9179 64.0882 17.5529H69.4312C69.4702 17.3319 69.4832 17.1109 69.4832 16.9159ZM64.1142 16.5909C64.2702 15.3429 65.1932 14.6019 66.2722 14.6019C67.2862 14.6019 68.2352 15.4469 68.2482 16.5909H64.1142ZM76.2222 10.9749V14.7839C75.7282 14.0559 74.8052 13.6139 73.7652 13.6139C71.8282 13.6139 70.2942 15.1349 70.2942 17.2149C70.2942 19.2949 71.8152 20.8159 73.7782 20.8159C74.8182 20.8159 75.7412 20.3999 76.2482 19.6589V20.6599H77.3402V10.9749H76.2222ZM73.8432 19.7369C72.4782 19.7369 71.4772 18.6709 71.4772 17.2149C71.4772 15.7719 72.4782 14.6929 73.8432 14.6929C75.2082 14.6929 76.2222 15.7719 76.2222 17.2149C76.2222 18.6709 75.2082 19.7369 73.8432 19.7369Z" fill="black"/>
<defs>
<filter id="filter0_d_31_3474" x="0.166748" y="5.15967" width="296.699" height="128.704" filterUnits="userSpaceOnUse" color-interpolation-filters="sRGB">
<feFlood flood-opacity="0" result="BackgroundImageFix"/>
<feColorMatrix in="SourceAlpha" type="matrix" values="0 0 0 0 0 0 0 0 0 0 0 0 0 0 0 0 0 0 127 0" result="hardAlpha"/>
<feOffset dy="4"/>
<feGaussianBlur stdDeviation="2"/>
<feComposite in2="hardAlpha" operator="out"/>
<feColorMatrix type="matrix" values="0 0 0 0 0.808333 0 0 0 0 0.358361 0 0 0 0 0.358361 0 0 0 0.25 0"/>
<feBlend mode="normal" in2="BackgroundImageFix" result="effect1_dropShadow_31_3474"/>
<feBlend mode="normal" in="SourceGraphic" in2="effect1_dropShadow_31_3474" result="shape"/>
</filter>
<linearGradient id="paint0_linear_31_3474" x1="148.5" y1="6.65991" x2="148.5" y2="125.176" gradientUnits="userSpaceOnUse">
<stop stop-color="#FF6C01" stop-opacity="0.61"/>
<stop offset="1" stop-color="#FF6C01" stop-opacity="0"/>
</linearGradient>
</defs>
</svg>
