<svg width="262" height="48" viewBox="0 0 262 48" fill="none" xmlns="http://www.w3.org/2000/svg">
<path d="M48.1283 19.2667V20.8573C47.333 25.5008 43.3308 28.8872 38.636 28.8872H28.8872C28.8872 34.1978 24.5772 38.5078 19.2667 38.5078V28.8872H9.62052V38.5078C9.62052 43.2026 6.2341 47.2047 1.59059 48H0V19.2667C0 13.9562 4.30999 9.64618 9.62052 9.62052V19.241H19.241V9.62052C19.2667 4.30999 23.551 0 28.8872 0V19.2667H48.1283Z" fill="#5141A5"/>
<path d="M40.868 14.5206C44.8777 14.5206 48.1282 11.27 48.1282 7.26029C48.1282 3.25054 44.8777 0 40.868 0C36.8582 0 33.6077 3.25054 33.6077 7.26029C33.6077 11.27 36.8582 14.5206 40.868 14.5206Z" fill="#5141A5"/>
<path d="M63.0322 30.1829H67.9277V20.6181H77.8656V30.1829H82.7498V7.02832H77.8656V16.5818H67.9277V7.02832H63.0322V30.1829Z" fill="#5141A5"/>
<path d="M89.6689 36.695C93.2529 36.695 95.1523 34.8635 96.1359 32.0596L102.886 12.8395L97.7866 12.8169L94.1574 25.57H93.9765L90.3812 12.8169H85.3162L91.5457 30.6803L91.2631 31.4152C90.63 33.0432 89.4202 33.1224 87.7243 32.6023L86.639 36.1976C87.3286 36.4915 88.4479 36.695 89.6689 36.695Z" fill="#5141A5"/>
<path d="M111.173 30.4655C113.977 30.4655 115.436 28.8488 116.103 27.4016H116.306V30.1829H121.055V7.02832H116.25V15.7339H116.103C115.458 14.3206 114.068 12.5908 111.162 12.5908C107.352 12.5908 104.13 15.553 104.13 21.5225C104.13 27.3338 107.216 30.4655 111.173 30.4655ZM112.7 26.6328C110.337 26.6328 109.048 24.5299 109.048 21.4999C109.048 18.4925 110.314 16.4236 112.7 16.4236C115.04 16.4236 116.352 18.4021 116.352 21.4999C116.352 24.5977 115.017 26.6328 112.7 26.6328Z" fill="#5141A5"/>
<path d="M125 30.1828H129.817V20.3579C129.817 18.2211 131.377 16.7513 133.503 16.7513C134.17 16.7513 135.085 16.8644 135.538 17.0113V12.7377C135.108 12.636 134.509 12.5681 134.023 12.5681C132.078 12.5681 130.484 13.6987 129.851 15.8468H129.67V12.8168H125V30.1828Z" fill="#5141A5"/>
<path d="M145.679 30.522C150.948 30.522 154.227 26.9154 154.227 21.5677C154.227 16.1861 150.948 12.5908 145.679 12.5908C140.411 12.5908 137.132 16.1861 137.132 21.5677C137.132 26.9154 140.411 30.522 145.679 30.522ZM145.702 26.7911C143.271 26.7911 142.028 24.5638 142.028 21.5338C142.028 18.5038 143.271 16.2653 145.702 16.2653C148.088 16.2653 149.331 18.5038 149.331 21.5338C149.331 24.5638 148.088 26.7911 145.702 26.7911Z" fill="#5141A5"/>
<path d="M165.182 37.0569C170.145 37.0569 173.673 34.7957 173.673 30.3524V12.8169H168.89V15.7339H168.71C168.065 14.3206 166.652 12.5908 163.746 12.5908C159.936 12.5908 156.714 15.553 156.714 21.466C156.714 27.2433 159.846 29.9341 163.758 29.9341C166.528 29.9341 168.076 28.5435 168.71 27.1076H168.913V30.2846C168.913 32.6702 167.387 33.5973 165.295 33.5973C163.17 33.5973 162.096 32.6702 161.7 31.6187L157.245 32.2179C157.822 34.954 160.501 37.0569 165.182 37.0569ZM165.284 26.3162C162.921 26.3162 161.632 24.4394 161.632 21.4434C161.632 18.4925 162.898 16.4235 165.284 16.4235C167.624 16.4235 168.936 18.4021 168.936 21.4434C168.936 24.5073 167.602 26.3162 165.284 26.3162Z" fill="#5141A5"/>
<path d="M185.42 30.522C189.716 30.522 192.61 28.4304 193.289 25.2082L188.834 24.9143C188.348 26.2371 187.104 26.9268 185.499 26.9268C183.091 26.9268 181.564 25.3326 181.564 22.7436V22.7322H193.39V21.4095C193.39 15.5078 189.818 12.5908 185.228 12.5908C180.117 12.5908 176.805 16.22 176.805 21.579C176.805 27.085 180.072 30.522 185.42 30.522ZM181.564 19.7475C181.666 17.7689 183.17 16.1861 185.307 16.1861C187.398 16.1861 188.845 17.6785 188.857 19.7475H181.564Z" fill="#5141A5"/>
<path d="M201.35 20.1432C201.361 17.9046 202.695 16.5931 204.64 16.5931C206.573 16.5931 207.738 17.8594 207.726 19.9849V30.1829H212.543V19.1257C212.543 15.0781 210.168 12.5908 206.551 12.5908C203.973 12.5908 202.107 13.8571 201.327 15.8808H201.124V12.8169H196.533V30.1829H201.35V20.1432Z" fill="#5141A5"/>
<path d="M217.234 30.1829H220.038V19.8266H232.384V30.1829H235.188V7.02832H232.384V17.3393H220.038V7.02832H217.234V30.1829Z" fill="#5141A5"/>
<path d="M240.801 30.1829H243.605V21.1381H248.67C248.874 21.1381 249.066 21.1381 249.258 21.1268L254.142 30.1829H257.398L252.164 20.6181C255.114 19.6118 256.494 17.2037 256.494 14.1285C256.494 10.0357 254.052 7.02832 248.625 7.02832H240.801V30.1829ZM243.605 18.6056V9.51563H248.534C252.288 9.51563 253.735 11.3472 253.735 14.1285C253.735 16.9097 252.288 18.6056 248.58 18.6056H243.605Z" fill="#5141A5"/>
</svg>
