<svg width="672" height="578" viewBox="0 0 672 578" fill="none" xmlns="http://www.w3.org/2000/svg">
<g filter="url(#filter0_ddd_31_3617)">
<rect x="214" y="114.062" width="352" height="149" rx="8" fill="white"/>
<path d="M236.875 148.063V148.062C236.875 143.752 240.363 140.229 244.667 140.229H269.459L277.646 148.416L277.793 148.562H278H311.333C315.64 148.562 319.167 152.088 319.167 156.396V198.062C319.167 202.369 315.64 205.896 311.333 205.896H244.667C240.359 205.896 236.833 202.369 236.833 198.062L236.875 148.063Z" fill="#F3F4F5" stroke="#D0D3D8"/>
<path d="M288.667 162.729H272.667C271.2 162.729 270 163.929 270 165.396V181.396C270 182.862 271.2 184.062 272.667 184.062H288.667C290.133 184.062 291.333 182.862 291.333 181.396V165.396C291.333 163.929 290.133 162.729 288.667 162.729ZM277.333 172.729C277.333 173.836 276.44 174.729 275.333 174.729H274V176.396C274 176.942 273.547 177.396 273 177.396C272.453 177.396 272 176.942 272 176.396V170.729C272 169.996 272.6 169.396 273.333 169.396H275.333C276.44 169.396 277.333 170.289 277.333 171.396V172.729ZM284 175.396C284 176.502 283.107 177.396 282 177.396H279.333C278.96 177.396 278.667 177.102 278.667 176.729V170.062C278.667 169.689 278.96 169.396 279.333 169.396H282C283.107 169.396 284 170.289 284 171.396V175.396ZM289.333 170.396C289.333 170.942 288.88 171.396 288.333 171.396H287.333V172.729H288.333C288.88 172.729 289.333 173.182 289.333 173.729C289.333 174.276 288.88 174.729 288.333 174.729H287.333V176.396C287.333 176.942 286.88 177.396 286.333 177.396C285.787 177.396 285.333 176.942 285.333 176.396V170.729C285.333 169.996 285.933 169.396 286.667 169.396H288.333C288.88 169.396 289.333 169.849 289.333 170.396ZM274 172.729H275.333V171.396H274V172.729ZM266 168.062C265.267 168.062 264.667 168.662 264.667 169.396V186.729C264.667 188.196 265.867 189.396 267.333 189.396H284.667C285.4 189.396 286 188.796 286 188.062C286 187.329 285.4 186.729 284.667 186.729H268.667C267.933 186.729 267.333 186.129 267.333 185.396V169.396C267.333 168.662 266.733 168.062 266 168.062ZM280.667 175.396H282V171.396H280.667V175.396Z" fill="#FE5F55"/>
<rect x="397" y="168.062" width="1" height="1" fill="#C4C4C4"/>
<path d="M358.928 174.476L354.96 179.868L351.008 174.476H349.088V186.396H351.104V177.948L354.848 183.116H355.072L358.816 178.076V186.396H360.848V174.476H358.928ZM368.786 177.772L366.466 183.868L364.146 177.772H362.05L365.442 186.364L365.154 187.036C364.93 187.564 364.642 188.204 363.538 188.204C363.202 188.204 362.786 188.14 362.546 188.076V189.692C362.898 189.852 363.346 189.916 363.81 189.916C365.986 189.916 366.658 188.348 367.042 187.404L370.882 177.772H368.786ZM374.916 186.396H376.932V181.948H379.396L381.908 186.396H384.212L381.46 181.596C382.82 181.052 383.668 179.868 383.668 178.22C383.668 175.852 381.956 174.476 379.508 174.476H374.916V186.396ZM376.932 180.188V176.252H379.508C380.772 176.252 381.62 177.036 381.62 178.22C381.62 179.404 380.772 180.188 379.508 180.188H376.932ZM393.114 181.772C393.114 179.484 391.386 177.58 388.954 177.58C386.522 177.58 384.682 179.484 384.682 182.076C384.682 184.604 386.49 186.588 389.098 186.588C390.858 186.588 392.266 185.692 392.794 184.46L391.21 183.692C390.826 184.396 390.138 184.892 389.114 184.892C387.786 184.892 386.778 184.012 386.682 182.636H393.018C393.082 182.38 393.114 182.076 393.114 181.772ZM386.714 181.148C386.938 179.884 387.834 179.18 388.954 179.18C390.058 179.18 390.986 179.996 391.05 181.148H386.714ZM397.598 186.588C399.566 186.588 400.926 185.532 400.926 183.98C400.926 182.78 400.126 181.916 398.638 181.5L397.102 181.068C396.606 180.924 396.062 180.652 396.062 180.108C396.062 179.564 396.558 179.196 397.358 179.196C398.334 179.196 399.102 179.692 399.422 180.508L400.926 179.804C400.398 178.428 399.054 177.58 397.358 177.58C395.454 177.58 394.158 178.636 394.158 180.188C394.158 181.356 394.91 182.236 396.414 182.652L397.886 183.036C398.414 183.18 399.022 183.436 399.022 184.028C399.022 184.62 398.462 185.02 397.598 185.02C396.574 185.02 395.726 184.476 395.278 183.452L393.79 184.172C394.334 185.676 395.806 186.588 397.598 186.588ZM407.665 177.772V182.892C407.665 184.06 406.929 184.812 405.841 184.812C404.737 184.812 404.001 184.06 404.001 182.892V177.772H402.081V183.132C402.081 185.116 403.424 186.588 405.345 186.588C406.401 186.588 407.281 186.156 407.761 185.404V186.396H409.585V177.772H407.665ZM420.9 177.58C419.716 177.58 418.724 178.124 418.212 179.004C417.668 178.108 416.724 177.58 415.572 177.58C414.532 177.58 413.7 178.012 413.252 178.828V177.772H411.444V186.396H413.364V181.276C413.364 180.076 414.036 179.356 415.044 179.356C416.068 179.356 416.74 180.076 416.74 181.276V186.396H418.66V181.276C418.66 180.076 419.348 179.356 420.356 179.356C421.38 179.356 422.052 180.076 422.052 181.276V186.396H423.972V180.796C423.972 178.876 422.692 177.58 420.9 177.58ZM433.614 181.772C433.614 179.484 431.886 177.58 429.454 177.58C427.022 177.58 425.182 179.484 425.182 182.076C425.182 184.604 426.99 186.588 429.598 186.588C431.358 186.588 432.766 185.692 433.294 184.46L431.71 183.692C431.326 184.396 430.638 184.892 429.614 184.892C428.286 184.892 427.278 184.012 427.182 182.636H433.518C433.582 182.38 433.614 182.076 433.614 181.772ZM427.214 181.148C427.438 179.884 428.334 179.18 429.454 179.18C430.558 179.18 431.486 179.996 431.55 181.148H427.214ZM435.186 186.396H437.17V184.236H435.186V186.396ZM444.037 177.58C442.821 177.58 441.781 178.06 441.189 178.86V177.772H439.381V189.596H441.301V185.516C441.909 186.188 442.885 186.588 444.021 186.588C446.485 186.588 448.405 184.636 448.405 182.076C448.405 179.516 446.469 177.58 444.037 177.58ZM443.845 184.812C442.357 184.812 441.301 183.676 441.301 182.092C441.301 180.492 442.357 179.356 443.845 179.356C445.317 179.356 446.405 180.508 446.405 182.092C446.405 183.66 445.317 184.812 443.845 184.812ZM456.396 174.476V178.732C455.788 177.996 454.796 177.58 453.644 177.58C451.212 177.58 449.292 179.532 449.292 182.092C449.292 184.636 451.18 186.588 453.66 186.588C454.812 186.588 455.852 186.156 456.492 185.388V186.396H458.316V174.476H456.396ZM453.852 184.812C452.364 184.812 451.292 183.676 451.292 182.092C451.292 180.508 452.364 179.356 453.852 179.356C455.324 179.356 456.396 180.508 456.396 182.092C456.396 183.692 455.324 184.812 453.852 184.812ZM460.914 186.396H462.834V179.5H464.786V177.772H462.834V177.276C462.834 176.396 463.394 175.932 464.306 175.932C464.45 175.932 464.706 175.948 464.898 175.98V174.316C464.69 174.268 464.322 174.236 464.066 174.236C462.178 174.236 460.914 175.34 460.914 177.276V177.772H459.362V179.5H460.914V186.396Z" fill="#14213D"/>
<path d="M243.248 247.206C245.072 247.206 246.332 246.186 246.332 244.71C246.332 243.51 245.576 242.742 244.088 242.298L242.468 241.818C241.592 241.566 241.124 241.05 241.124 240.39C241.124 239.562 241.832 239.01 242.912 239.01C244.016 239.01 244.844 239.586 245.216 240.63L246.26 240.15C245.828 238.938 244.58 237.978 242.912 237.978C241.16 237.978 239.924 238.998 239.924 240.462C239.924 241.554 240.644 242.454 242.108 242.898L243.812 243.402C244.688 243.654 245.144 244.05 245.144 244.794C245.144 245.61 244.388 246.174 243.248 246.174C242.072 246.174 241.124 245.526 240.68 244.314L239.648 244.782C240.092 246.162 241.484 247.206 243.248 247.206ZM247.891 239.502H248.971V238.086H247.891V239.502ZM247.891 247.062H248.971V240.594H247.891V247.062ZM250.152 247.062H255.288V246.042H251.616L255.276 241.494V240.594H250.344V241.614H253.848L250.152 246.162V247.062ZM262.445 243.558C262.445 241.902 261.245 240.45 259.385 240.45C257.573 240.45 256.205 241.866 256.205 243.81C256.205 245.754 257.597 247.206 259.469 247.206C260.813 247.206 261.881 246.498 262.289 245.598L261.353 245.106C261.017 245.754 260.393 246.234 259.481 246.234C258.329 246.234 257.381 245.394 257.333 244.146H262.385C262.433 243.954 262.445 243.726 262.445 243.558ZM257.357 243.234C257.513 242.094 258.377 241.398 259.385 241.398C260.333 241.398 261.233 242.178 261.257 243.234H257.357ZM264.058 242.046H265.234V240.606H264.058V242.046ZM264.058 247.062H265.234V245.622H264.058V247.062ZM269.705 247.062H275.681V246.042H271.313L273.569 243.726C274.865 242.382 275.465 241.482 275.465 240.486C275.465 239.01 274.289 237.978 272.669 237.978C271.229 237.978 270.065 238.746 269.645 239.946L270.581 240.426C270.917 239.526 271.637 239.022 272.645 239.022C273.665 239.022 274.277 239.574 274.277 240.546C274.277 241.494 273.593 242.25 272.225 243.666L269.705 246.246V247.062ZM280.644 241.542L282.672 239.106V238.122H277.296V239.142L281.328 239.154L278.988 241.974L279.156 242.598C279.348 242.55 279.648 242.502 279.9 242.502C281.04 242.502 281.832 243.258 281.832 244.326C281.832 245.406 281.052 246.15 279.9 246.15C278.94 246.15 278.148 245.622 277.8 244.746L276.864 245.226C277.332 246.462 278.484 247.206 279.9 247.206C281.712 247.206 283.02 245.982 283.02 244.302C283.02 242.862 282.012 241.734 280.644 241.542ZM291.088 244.026H289.84V238.122H288.712L284.14 244.026V244.998H288.736V247.062H289.84V244.998H291.088V244.026ZM285.34 244.026L288.736 239.622V244.026H285.34ZM298.812 241.506L301.836 238.122H300.444L296.58 242.382V238.122H295.392V247.062H296.58V244.014L298.02 242.418L300.876 247.062H302.244L298.812 241.506ZM309.198 242.25C309.81 241.83 310.122 241.194 310.122 240.462C310.122 239.034 309.054 238.122 307.458 238.122H303.666V247.062H307.458C309.294 247.062 310.482 246.054 310.482 244.434C310.482 243.534 310.05 242.73 309.198 242.25ZM304.854 239.142H307.422C308.31 239.142 308.886 239.67 308.886 240.462C308.886 241.266 308.31 241.794 307.422 241.794H304.854V239.142ZM307.518 246.03H304.854V242.826H307.518C308.562 242.826 309.258 243.474 309.258 244.434C309.258 245.382 308.562 246.03 307.518 246.03Z" fill="#A1A6B1"/>
<path d="M514.272 238.516L512.032 244.34L509.792 238.516H508.406L511.458 246.062H512.606L515.672 238.516H514.272ZM517.074 237.242H518.334V235.59H517.074V237.242ZM517.074 246.062H518.334V238.516H517.074V246.062ZM527.314 241.974C527.314 240.042 525.914 238.348 523.744 238.348C521.63 238.348 520.034 240 520.034 242.268C520.034 244.536 521.658 246.23 523.842 246.23C525.41 246.23 526.656 245.404 527.132 244.354L526.04 243.78C525.648 244.536 524.92 245.096 523.856 245.096C522.512 245.096 521.406 244.116 521.35 242.66H527.244C527.3 242.436 527.314 242.17 527.314 241.974ZM521.378 241.596C521.56 240.266 522.568 239.454 523.744 239.454C524.85 239.454 525.9 240.364 525.928 241.596H521.378ZM538.183 238.516L536.349 244.158L534.613 238.516H533.241L531.505 244.172L529.671 238.516H528.271L530.903 246.062H532.093L533.927 240.252L535.761 246.062H536.951L539.583 238.516H538.183Z" fill="#5141A4"/>
<rect x="214.5" y="114.562" width="351" height="148" rx="7.5" stroke="#EEECF6"/>
</g>
<defs>
<filter id="filter0_ddd_31_3617" x="0" y="0.0622559" width="780" height="577" filterUnits="userSpaceOnUse" color-interpolation-filters="sRGB">
<feFlood flood-opacity="0" result="BackgroundImageFix"/>
<feColorMatrix in="SourceAlpha" type="matrix" values="0 0 0 0 0 0 0 0 0 0 0 0 0 0 0 0 0 0 127 0" result="hardAlpha"/>
<feOffset dy="8.14815"/>
<feGaussianBlur stdDeviation="8.71852"/>
<feColorMatrix type="matrix" values="0 0 0 0 0 0 0 0 0 0 0 0 0 0 0 0 0 0 0.0274815 0"/>
<feBlend mode="normal" in2="BackgroundImageFix" result="effect1_dropShadow_31_3617"/>
<feColorMatrix in="SourceAlpha" type="matrix" values="0 0 0 0 0 0 0 0 0 0 0 0 0 0 0 0 0 0 127 0" result="hardAlpha"/>
<feOffset dy="38.5185"/>
<feGaussianBlur stdDeviation="34.0815"/>
<feColorMatrix type="matrix" values="0 0 0 0 0 0 0 0 0 0 0 0 0 0 0 0 0 0 0.0425185 0"/>
<feBlend mode="normal" in2="effect1_dropShadow_31_3617" result="effect2_dropShadow_31_3617"/>
<feColorMatrix in="SourceAlpha" type="matrix" values="0 0 0 0 0 0 0 0 0 0 0 0 0 0 0 0 0 0 127 0" result="hardAlpha"/>
<feOffset dy="100"/>
<feGaussianBlur stdDeviation="107"/>
<feColorMatrix type="matrix" values="0 0 0 0 0.317647 0 0 0 0 0.254902 0 0 0 0 0.647059 0 0 0 0.32 0"/>
<feBlend mode="normal" in2="effect2_dropShadow_31_3617" result="effect3_dropShadow_31_3617"/>
<feBlend mode="normal" in="SourceGraphic" in2="effect3_dropShadow_31_3617" result="shape"/>
</filter>
</defs>
</svg>
